<?xml version="1.0" encoding="utf-8"?>
<!-- Generator: Adobe Illustrator 27.8.0, SVG Export Plug-In . SVG Version: 6.00 Build 0)  -->
<svg version="1.1" id="Layer_1" xmlns="http://www.w3.org/2000/svg" xmlns:xlink="http://www.w3.org/1999/xlink" x="0px" y="0px"
	 viewBox="0 0 500 500" style="enable-background:new 0 0 500 500;" xml:space="preserve">
<style type="text/css">
	.st0{opacity:0;fill:#C04529;}
	.st1{fill:#C04529;}
</style>
<g>
	<g id="Stroke_9_Felt">
		
			<image style="overflow:visible;opacity:0.75;" width="1262" height="2006" xlink:href="C98608CD.png"  transform="matrix(0.24 0 0 0.24 94.44 -2.76)">
		</image>
		<g>
			<polyline class="st0" points="303.3,451 303.7,450.8 303.9,449.5 304.1,448.1 304.3,447 304.7,447.2 305.1,448.1 305.1,450 
				305.3,452.2 306,453.6 307.6,454 309.3,453.4 309.4,451.9 306.4,448.8 302,445.7 300.7,444.9 296.2,441.9 294.3,440.7 
				289.1,437.1 284,433.1 279,429.4 273.4,426 267.7,422.6 263,419.8 261.1,418.7 256.3,415.9 253.4,414.2 248.7,411.5 245.5,409.7 
				240.7,406.9 237.7,405.1 233.2,402.2 231.3,400.9 226.9,397.9 225.7,397.1 220.4,393.7 215.3,390.1 211,387 209.7,386 
				205.9,382.6 204.2,381 200.8,377.4 198.9,375.4 195.9,371.6 194.3,369.5 191.3,365.7 190,364 186.8,360.3 185.5,358.8 
				182.2,355.2 180.5,353.3 177.4,349.5 175.6,347.3 172.4,343.7 170.8,341.9 167.7,338.2 166.5,336.8 163.3,333.1 162.1,331.6 
				159.2,327.8 157.6,325.6 154.9,321.7 153.2,319.1 150.8,315.2 149.2,312.5 146.7,308.5 145.1,306 142.6,302 141.1,299.7 
				138.6,295.7 137,293 134.8,288.9 133.5,286.1 131.8,281.9 130.7,279.3 129,275.1 128.2,273.3 126.3,269.2 125.6,267.6 
				123.5,263.6 122.5,261.5 120.6,257.4 119.2,254.2 117.6,250.1 116.1,246.4 114.7,242.2 113.8,238.9 112.9,234.6 112.4,231.7 
				111.8,227.4 111.5,224.3 111,219.9 110.6,216.2 109.9,211.9 109.2,208.2 108.5,203.9 107.9,200.8 107.3,196.5 107,193.5 
				106.7,189.1 106.7,185.4 106.9,181.1 107.2,175.9 107.4,171.6 107.7,166.9 108,162.6 108.4,158.4 108.9,154 109.7,149.9 
				110.7,145.7 112.3,139.9 113.8,135.7 115.9,130.2 117.6,126 119.6,121.5 121.4,117.4 123,113.9 125,109.8 126.8,106.1 128.9,102 
				130.6,98.7 133,94.7 135,91.7 137.7,87.8 140.3,84.4 143.3,80.6 146.5,76.9 149.8,73.2 153.1,70 156.8,66.5 159,64.5 162.9,61.1 
				164.6,59.8 168.8,56.6 170.7,55.2 175.1,52.2 177.6,50.7 182.3,47.9 185,46.4 189.8,43.7 192,42.5 197.1,40 198.7,39.1 
				203.6,36.5 205.4,35.6 210.5,33.2 212.7,32.1 217.8,29.7 220.5,28.5 225.8,26.3 228.7,25.2 234.2,23.2 236.8,22.4 242.4,20.7 
				244.9,20 250.7,18.6 253.3,18 259.3,16.9 261.8,16.4 267.8,15.5 270.4,15.2 276.6,14.7 279,14.5 285,13.8 288,13.4 294,12.6 
				297.3,12 303.2,10.9 306.3,10.2 312.2,9.2 314.4,8.9 321.6,8.5 328.8,9.2 336,10.8 341.7,12.5 343.2,13 348.6,15.1 350.2,15.6 
				356.5,17.7 362.9,19.7 368.8,20.9 374.9,21.8 			"/>
			<g>
				<g>
					<g>
						<g>
							<polygon class="st1" points="375.2,19.7 374.6,18.9 370.8,19.2 							"/>
							<path class="st1" d="M339,8.7c-0.8-0.1-1.7-0.2-2.7-0.3c-1-0.1-2-0.2-3-0.2c-2-0.1-3.6-0.2-4.4,0.2c-0.2,0.1-0.3,0.2-0.4,0.4
								l0.3,0l6.1,0.3c0.6,1.1,4.5,2.2,8.1,2.9c-1.3-0.4-2.6-0.7-4-1.1c1.1,0.2,0.6-0.6,1.6-0.5c1.5,0.5,2.8,1,3.8,1.3
								c1.1,0.4,2,0.6,2.9,0.9c1.9,0.6,3.5,1.1,6.1,2.5l-0.3,0l4.5,0.8c1.3,0.6,0.6,0.8,0.1,0.9c1,0.2,2,0.3,2.9,0.5
								c0.9,0.2,1.8,0.3,2.8,0.5c0.1,0,0.4,0,0.6,0.1c0.2,0,0.5,0.1,0.7,0.1c0.5,0.1,1,0.2,1.6,0.2c1.1,0.2,2.3,0.4,3.6,0.6
								c-0.8-0.5-1.8-0.9-2.9-1.1c-0.6-0.1-1.1-0.2-1.7-0.3c-0.3,0-0.6-0.1-0.9-0.1l-0.5-0.1l-0.2,0c-0.1,0-0.1,0-0.1,0
								c0,0-0.3,0-0.5-0.1l-0.6-0.1c-0.4-0.1-0.9-0.2-1.3-0.2c-0.8-0.2-1.7-0.3-2.5-0.5c-1.6-0.4-3-1-4-1.8l0.3,0
								c-1.3-0.2-2.6-0.6-3.9-1c-1.2-0.5-2.6-1-3.9-1.6l-2-0.9l-1-0.4l-1.1-0.4C341.7,9.4,340.4,9,339,8.7z"/>
							<path class="st1" d="M357.8,16.7c-0.1,0-0.2,0-0.4-0.1C357.4,16.7,357.6,16.7,357.8,16.7z"/>
							<path class="st1" d="M150.6,66.8l0,0.4C150.8,66.9,151,66.6,150.6,66.8z"/>
							<path class="st1" d="M209.5,33.3c-0.1,0-0.2,0.1-0.3,0.1C209,34,209.2,33.8,209.5,33.3z"/>
							<path class="st1" d="M212.1,392.1l0.8,1.1C212.9,392.7,212.5,392.3,212.1,392.1z"/>
							<path class="st1" d="M287.8,440.9c0,0,0.1,0,0.1,0.1C287.9,440.9,287.8,440.9,287.8,440.9z"/>
							<path class="st1" d="M256.5,413.9l0-0.4C256.3,413.6,256.3,413.7,256.5,413.9z"/>
							<path class="st1" d="M282,428.5c0.6,0.6,1.2,1.1,1.9,1.6C283.6,429.6,282.8,428.9,282,428.5z"/>
							<path class="st1" d="M286.9,440.5c0.3,0.1,0.6,0.2,0.8,0.4C287.5,440.7,287.2,440.5,286.9,440.5z"/>
							<path class="st1" d="M219.9,390.2l-0.4-1.4C219.3,389.1,219.6,389.7,219.9,390.2z"/>
							<path class="st1" d="M288.2,432.2c0.2,0.4,0.6,0.8,1,1.2C289.1,433.1,288.8,432.7,288.2,432.2z"/>
							<path class="st1" d="M333.2,7.3c0.8,0.2,1.7,0.4,2.9,0.5C335,7.5,334.1,7.4,333.2,7.3z"/>
							<path class="st1" d="M125.4,259.8c0.2,0.2,0.4,0.3,0.6,0.3C125.6,259.6,125.5,259.6,125.4,259.8z"/>
							<path class="st1" d="M174.3,341l0.2,0.2c0-0.1-0.1-0.2-0.1-0.4L174.3,341z"/>
							<path class="st1" d="M157,319.4c0.1,0.1,0.3,0.1,0.4,0.2C157.2,319.4,157.1,319.4,157,319.4z"/>
							<path class="st1" d="M188.9,356.3c0.3,0.2,0.6,0.4,0.9,0.6L188.9,356.3z"/>
							<path class="st1" d="M201,372.9c-0.3-0.9,0.5-0.3,1.4,0.1c-1.4-2-2.5-3.2-3.6-4.4c-1.1-1.3-2.3-2.6-3.6-4.9l1.2,2.3
								c-0.7-0.6-1.4-1.3-2.2-2.1c-0.8-0.8-1.6-1.8-2.4-2.7c-1.6-1.8-3-3.8-3.7-5.2c0.3,0.2,0.6,0.3,0.9,0.5c-1.4-1-2.7-2.6-3.8-4.1
								c-0.5-0.7-1-1.4-1.4-1.9c-0.4-0.6-0.8-1-1.1-1.2c0.5,1.3-0.5,0.4,0.4,2.2l-5.8-5.9l0.6-1.3l-3.3-3c0.2,0.6-0.7-0.5-1.7-1.7
								c-1-1.2-2.1-2.5-2.7-2.1c-1.2-2.2,1.4,0.1,2.3,0.5c-0.9-0.8-1.3-1.3-1.7-1.8c-0.4-0.5-0.9-1-1.9-1.6l-0.7-2.6
								c-1.7-1.5-3.1-2.7-4.5-4.2c0.3,0.2,0.1-0.2,0.4,0c-0.6-0.4-1.2-1-1.7-1.7c-0.5-0.7-1-1.5-1.5-2.3c-1-1.6-2.3-3.3-4-4.3
								c0.2,0.1,0.2,0,0.3,0c-0.9-0.6-1.9-2-2.7-3.5c-0.8-1.5-1.5-3-1.9-3.9c-1.9-2.7-1.6-0.6-2.1-0.5c-4.8-8.3-3.3-5.6-8.7-11.6
								c-1.3-4.8,4.9,3.5,2.6-2.1c-0.5-0.2-1.4-1-2.6-2.4c-0.6-0.7-1.2-1.4-1.8-2.3c-0.3-0.4-0.6-0.9-1-1.3c-0.3-0.5-0.6-1-0.9-1.5
								c-0.4-1-0.9-2.1-1.3-3.4c-0.2-0.6-0.5-1.3-0.7-1.9c-0.2-0.7-0.4-1.4-0.6-2c-0.8-2.7-1.6-5.6-2-7.7l-0.7,0.8
								c-0.9-1.8-2-3.7-3-5.4l2.7,2.6c-0.7-0.8-2.5-3.4-3.8-5c-0.9-1.4-1.3-2.3-1.5-3c-0.2-0.7-0.2-1.2-0.2-1.6
								c0.1-0.8,0.1-1.5-1.6-3.3c0-0.2,0-0.4,0.1-0.5c-0.6-0.5-1.3-1.8-2.1-3.4c-0.8-1.7-1.7-3.7-2.6-5.8l1.7,1.1
								c0.3,1,0.6,1.9,0.9,2.9c0.4-1.9-2.1-4.6-3.1-7.4c-1.5-2.7-1.9-1-2.7-2.4c-0.3-1.1-1.2-2.6-1.1-3.5c-0.4-2.7,1.3-0.7,2,0
								c-0.9-0.9-1.4-1.6-1.8-2.6c-0.2-0.5-0.4-1.2-0.7-2c-0.2-0.8-0.6-1.8-0.9-3.1c0.5-0.4,0.8,0,1.1,0.6c-0.3-1-0.7-1.9-1.3-2.4
								l0.4-1.9c0.1-3.1-0.6-4.5-1.4-6c-0.8-1.6-1.7-3.3-1.9-7c0.9,1.8-1.1-6.2-0.8-8.6c0.6,2.5,1.5-1.5,2.5-0.1
								c-0.6-5.8-1.8-2.1-2.9-6.6l1.8,1.6c-1.4-4.3-1-0.9-2.1-5.4c0.6,1.2,0.1-2,1,0.5c-0.4-2.9-0.4-4-0.5-4.9
								c-0.1-1-0.1-1.9-0.2-4.5l-1.4-0.4c-0.2-1.7,0.5-2.4,0.7-2.9c0,0.7,0,1.8,0.2,1.7c1.2-2-0.7-3.3,0.6-5.6
								c-0.5,0.6-1.1,1.2-1.1-1c0.8,0.7,1-3.3,1.4-3.5c-0.7,1.4,0-4.7-0.9-5.1c0.8-2.5,0.6,0.8,1.1,1c-1-2.2,0.4-8.9-0.1-10.8
								c0.1,0,0.2-0.1,0.2-0.1c-0.4-2.7-0.3-7.1-0.2-12.4c0.1,0.6,0.3,1.3,0.5,1.9c0.2-0.6,0.3-1.2,0.3-1.6c0.1-0.5,0.1-0.8,0.1-1.1
								c0-0.6-0.1-1.1-0.3-1.4c-0.3-0.8-0.7-1.5-0.1-3.7c0.4,0.6,0.9-1.2,1.4-2.8c0.5-1.7,1-3.1,1.3-2c0.1-1.4,0.3-2.7,0.5-4
								c0.2-1.3,0.3-2.5,0.1-3.5c1.5-2.1-0.2,5.1,1.3,1.9c0.3-1.2,0.5-2.5,0.8-3.8l0.8-0.4c-0.4-0.3,0.9-3.4,0.5-3.4
								c0.9-0.2,2-1.4,2.5-1.1c0.8-2.3,2.8-5.1,3-7.2l0.4,0c-0.3-2.7,2.8-6.7,2.1-8.4l1.4-1c1.5-3.3-0.1-3.4,0.3-5.1
								c0.6-1.3,1.3-3,2.1-4.3c-0.7,2.4-0.2,1.9,0.6,0.9c0.8-1.1,2.1-2.7,2.5-3c0.9-1.6,3.9-6.2,4.2-7.9c-0.7,2.3,0.6,1.5-1.6,4.8
								c2.3-1,3.1-5.3,6.1-8.7l0.5,0.4c1.8-2.7,2.5-4.2,3-5.4c0.4-1.2,0.5-2.2,1-3.6c1.1,0,0.8,0.6,0.3,2.5c0.8-0.7,1.6-1.6,2.6-2.6
								c0.9-0.9,1.8-2,2.8-3c1-1,1.9-2.1,2.9-3.1c1-1,2-1.9,2.9-2.7c1.5-0.6,1,0.3,0,1.6c1.6-1.9,3.8-3.7,5.7-5.5
								c1-0.9,1.8-1.7,2.6-2.5c0.8-0.8,1.4-1.5,1.8-2.3c-0.6,1.2,1.8-1,3.5-1.8c-0.2-0.2-0.1-0.8,0.1-0.9c1.1-1.1,3-2.8,5-4.2
								c1-0.7,2.1-1.4,3.2-2c1-0.6,2-1.1,2.9-1.4l-0.9,1c3.6-2,6-3.9,8.5-5.8c2.5-1.9,5.3-3.5,9.5-5.2c1.6-0.5-0.9,1.9,2,0.2
								c1.2-1.2,0.2-2,4.1-3.7l0.2,1l2.2-2.1c-0.8,0-2.3,0.5-3.2,0.8c-0.9,0.3-1.3,0.4,0-0.8c3.8-0.8,2.6-2.3,7.3-3.3
								c-0.9,0.5-1.9,1.8-2.4,2.5c4.6-1.6,7.6-3.2,10.6-4.8c3.1-1.5,6.1-3.1,11-4.2c2.2-1.2,4.7-2.3,7.2-3.3
								c1.2-0.5,2.4-0.9,3.5-1.4c1.1-0.4,2-0.8,2.8-1.2c0,1,0.2,1.8-1.8,3.1c2-0.5,3.4-1.3,4.6-2c1.3-0.7,2.4-1.2,4-0.8
								c1.7-1.7,11.2-3.1,11.9-4.9c0.2,0.3,4.5-0.7,0.3,1c1.4-0.4,2.6-0.5,3.6-0.5c1,0,1.9,0.1,2.7,0.2c1.5,0.3,2.7,0.8,4,0.7
								c1.5-0.2-1.8-1,1.6-1.3c0.4,0,0.5,0.2,0.9,0.3l1.2-0.5c1.4,0.3-1.4,1-1.4,1.5c2.4,0,4.3-0.5,6.2-1c2-0.6,4.1-1.2,6.8-1.7
								l-0.9,0.4l5.6-0.7l-0.3,0.1c1.5-0.5,2.9-0.9,4.4-1.4l0,0.5c1-0.3,1.2-0.7,2.6-1l-0.4,0.7c1.2-1.1,6.4-2.7,9-3.2l0.5,0.2
								l2.1-0.8l1.1-0.4l0.5-0.2c0.2-0.1,0.3-0.1,0.6-0.2l0.3-0.1l0.2-0.1l0.4-0.1l0.9-0.2c3.3,0.5-4.1,1.6,2.4,0.8l-1.6,1.3
								c2.3-0.4,3.6-0.4,4.8-0.4c1.2,0.2,2.1,0.3,3.8,0.2c-1.4-0.7-3.6-0.8-1.9-1.2c1,0.5,2,0.7,2.9,0.8c0.4,0,0.9,0,1.3,0
								c0.2,0,0.4,0,0.6-0.1l0.3-0.1l0.4,0c0.5,0,0.7,0,1.1,0c0.3,0,0.6,0,1,0c0.7,0,1.4,0,2.1,0c-0.8-0.2-1.5-0.3-2.1-0.4
								c-0.3,0-0.6-0.1-0.9-0.1c-0.1,0-0.3,0-0.4,0c-0.1,0-0.4,0-0.6,0c-0.2,0-0.4,0.1-0.5,0.1c-1.9-0.2-0.6-0.7-1.8-0.8l-2.7,0.4
								l-0.7-0.9l-0.8,0l-0.4,0c-0.1,0-0.4,0-0.6,0l-0.6,0.1L320.7,6L320,6.1l-1.5,0.3c0.2-1-4.2,0.1-2.5-1
								c-0.3,0.1-0.6,0.1-0.9,0.1c-0.2,0-0.3,0-0.4,0c-0.2,0-0.4,0-0.6,0c-0.3,0-0.6,0.1-0.9,0.1c-0.3,0-0.5,0.1-0.8,0.1
								c-0.5,0.1-1,0.1-1.5,0.2c-1,0.2-1.9,0.5-3,1.1c-2.3-0.2,3.3-1.3,1-1c-3.2,0.7-6.3,1.6-9.4,2.2c-3.1,0.8-6.2,1.2-9.5,1.7
								c-3.2,0.5-6.4,0.8-9.7,1.2c-1.6,0.2-3.2,0.3-4.9,0.4c-1.7,0.1-3.3,0.2-5,0.3l1.3-0.5c-1.2,0.5-3,1.1-3.9,1.5
								c-1.2-0.2-4-0.2-6.9,0c-2.9,0.3-5.8,1-7.2,2c-0.4,0,0.2-0.3,0.5-0.5c-1.1,0.2-2.4,0.5-3.9,0.8c-1.5,0.3-3.1,0.6-4.7,0.9
								c-1.6,0.3-3.5,0.6-5.1,1.1c-1.7,0.4-3.3,0.9-4.8,1.4c-0.5,0.6-1.4,1-2.4,1.4c-1,0.4-2.2,0.7-3.3,1c-2.3,0.6-4.5,1.4-5.3,2.8
								l1.1-0.9c1.1-0.1,0.5,0.5-0.4,1.2c-0.9,0.8-2.2,1.7-2.5,2.1c-2.2-0.6-0.5-0.9-3-1.2l2.5-0.5l-0.9-0.8
								c-0.8,0.7-1.6,1.3-2.5,1.9c-0.8,0.6-1.7,1-2.5,1.4c-1.7,0.8-3.3,1.4-4.9,1.9c-3.2,1-6.2,1.9-8,3.9c0.2-0.2,0.1-0.4,0.3-0.6
								c-0.8,0.2-1.6,0.6-2.2,1c-0.6,0.4-1.1,0.8-1.6,1.3c-1,0.9-1.8,1.9-2.8,2.6c-0.5-0.4,0.8-1.5,1.8-2.5c-0.7,0.3-1.4,0.6-2.1,1
								c-0.7,0.4-1.5,0.8-2.3,1.2c-1.6,0.9-3.3,1.8-5.1,2.9c-1.8,1.1-3.4,2.1-5.1,3.1c-1.7,1-3.3,1.8-4.8,2.4
								c-1.6,1.8,1.2,0.4-0.5,2.1c-1.8,0.8-3.4,1-1.4-0.5c-1.4,0.4-3.1,1.3-4.9,2.5c-1.8,1.2-3.7,2.6-5.8,4.2c-1,0.8-2,1.6-3,2.5
								l-1.5,1.2c-0.5,0.4-1,0.8-1.5,1.3c-1.9,1.7-3.8,3.1-5.6,4.3c-1.4,1.8-1.5,2.4-1.9,3c-0.2,0.3-0.4,0.7-0.9,1.4
								c-0.5,0.6-1.2,1.5-2.3,2.8c0.8-1.5-2.5-0.1,0.5-3.1l0-0.8c-5.2,4.7-11.5,11.8-12.5,15.9c-1.1-0.6-1,0.9-3.1,2.6
								c-0.5,0.9,0.2,0,0.5-0.3c-0.7,2.6-2.3,3.1-3.2,4.7l0.2-0.7c-0.8,1.5-1.5,3.1-2.2,4.6c-0.6,0.6-1.4,1.6-1.8,1.6l0.7,0.4
								c-0.7,1.2-1.1,1.3-1.5,1.5c-0.4,0.2-0.9,0.6-1.6,2.1l0.9-0.3c-1.4,1.7-2.1,5.1-3.1,5.1c-0.2,0,0.1-0.3,0.4-1
								c-1.3,1.2-2.2,3.1-3,5.2c-0.8,2.1-1.6,4.3-2.7,6l1.7-0.4c-1.3,3.8-1.3,2.1-1.6,1.7c-1.1,2.4-1.7,2.8-3.3,5.9
								c-0.4,1.7,0.1,1,0.2,1.7c-0.6,1-1.2,2.1-1.7,3.1c0.1-0.8,0.1-1.6,0.2-2.4c-0.2,2.9-1.6,6.1-2.7,9.1c-0.3,0.8-0.6,1.5-0.9,2.2
								c-0.3,0.7-0.5,1.4-0.7,2.1c-0.4,1.4-0.6,2.6-0.4,3.6c-1,1.9-0.3-2-0.8-0.9c-0.7,1.5-1.2,3.2-1.6,4.9
								c-0.4,1.7-0.7,3.6-0.9,5.4c-0.4,3.6-0.5,7-1.3,9.7c-0.9,4.4-1.2,9.1-1.4,13.9c-0.3,4.9-0.5,9.9-0.8,14.8l0.4-0.2
								c-0.1,1.2,0,2.4,0,3.6c0,1.2,0,2.4,0.1,3.6c0.3,0.5,0.5,1.1,0.6,1.9c0.2,0.8,0.4,1.6,0.6,2.5c0.4,1.8,0.9,3.7,1.6,5
								c-0.3-0.2-0.7,0.5-1-0.1c0.6,2.9,1.6,5.9,1.4,7.7l-0.5-0.9c0.2,1.6,0.5,3.3,0.7,5.1c0.2,1.8,0.4,3.5,0.6,5.2
								c0.4,3.4,0.9,6.6,1.5,8.2c0.4,2.2-0.3,2.2-0.6,2.9c0.1,1,0.3,1.9,0.5,2.7c0.2,0.8,0.4,1.6,0.7,2.3c0.2,0.7,0.5,1.5,0.8,2.2
								c0.3,0.7,0.7,1.4,1,2.2c0.1,0.9,0.2,1.8,0.2,2.8l1.3,1.1c0.4,1.6-0.6,0.6-0.4,1.9c1.6,2.7,2.8,5.6,3.9,8.4
								c1.1,2.8,2.1,5.5,3,7.4l0.1-0.7c0.5,0.7,1.1,1.9,1.3,2.7c0.2,0.8,0.1,1.2-0.6,0.4c0.4,0.9,0.8,1.8,1.2,2.6
								c0.4,0.8,0.8,1.5,1.2,2.2c0.8,1.4,1.6,2.8,2.4,4.3c1.8,2.9,3.4,6,5.5,11.3c-0.5,1,0.7,3.4,2,5.6c0.6,1.1,1.3,2.2,1.7,3.2
								c0.5,1,0.7,1.8,0.6,2.4c2.9,3.8,3.9,6.7,6.5,8.8c-0.1,0.2,0,0.6-0.4,0c0.4,2,4.1,6.7,6.9,10.5l-0.3,0.5
								c1,0.4,2.4,2.4,3.9,4.4c1.6,2,3.1,3.8,4.1,4.2c0.1,0.6-0.9-0.4-1.5-0.9c0.2,1.3,1,2.1,1.8,2.9c0.9,0.8,1.9,1.6,2.7,3
								c-0.4,0-0.1,0.9-0.7,0.5c0.3,0.6,0.7,1.2,1.1,1.8c0.2,0.3,0.4,0.6,0.6,0.9c0.2,0.3,0.5,0.6,0.7,0.9c0.5,0.6,0.9,1.2,1.4,1.7
								c0.5,0.6,1,1.1,1.5,1.7c2,2.2,4.1,4.8,6.6,7.3c1.2,1.2,2.3,2.4,3.5,3.6c1.1,1.2,2.2,2.5,3.4,3.9l1.7,2c0.6,0.7,1.2,1.4,1.8,2
								c1.1,1.3,2.3,2.6,3.3,3.9c2.4,2.8,0.1-1.9,3.2,1.9c0.4,1.5-2.5-1-0.7,1.5c1,0.6,1.6,1.1,2.2,1.7c0.6,0.6,1.1,1.4,2,2.6
								c-0.6-0.2-0.6,0.3-2.1-1.1c0.3,0.8,1.7,2.1,3.1,3.6c0.7,0.7,1.4,1.6,2,2.4c0.6,0.8,1.2,1.7,1.6,2.6c0.2-0.4,0.8,0,1.3,0.4
								c1,0.9,2.1,1.9,3,3c0.9,1,1.8,2.1,2.5,3.1c0.7,1,1.4,1.9,1.9,2.5c0.5,0.6,0.9,1,1.1,1c0,0,1.5,1.1,0.4-0.1
								c1.4,1.3,3.4,3.3,2.7,3.4c0.5,0.2,1.1,0.4,1.6,0.6c0.5,0.2,1.1,0.4,1.7,0.8l-1.1,0.1c0.8,0.4,1.9,0.6,2.6,1l-0.8-1.1
								c1.4,1.8,5.7,3.1,4.8,4.1l-0.6-0.4c1,0.9,2,1.9,3,2.8c1.7,0.5,3.3,0.9,5.5,2.6c0.1,1.7,5.5,4.1,8.4,6.1l-0.4,0.3
								c1.4,0.5,3.4,1.7,5.1,2.7c1.7,1,2.9,1.7,2.4,1.3c2.3,1.3,5.2,3.4,3.9,3.1c2,0.8,5.9,3.1,7.2,2.9l3.1,3.1
								c3.1-0.2,7,4.8,8.2,3.4c1.9,1.5,1.2,1.5,2.5,2.6c3.3,0.9,6.2,2.8,9,4.7l0,0.2c0.6,0.4,1.2,0.7,1.8,1.1c0.3,0.2,0.6,0.3,1,0.5
								l0.5,0.2c0.2,0.1,0.4,0.2,0.4,0.2c0,0,0,0,0.1,0l0.2,0.1l0.4,0.2c0.3,0.2,0.5,0.3,0.8,0.5c0.5,0.3,1.1,0.6,1.7,1
								c1.1,0.7,2.3,1.4,3.5,2.3l0,1.7c2.1,1.4,3.2,1,5.1,2.6c0.3,0.5-0.1,0.2-0.7-0.1c2.2,1.1,4.6,3.3,6,4.6c1.8,0.6,3.2,1.3,4.6,2
								c1.4,0.7,2.7,1.4,4.3,1.9c1.6,2.6-3.7-2-2.4,0.4c0.5,0.5,1.1,1,1.7,1.4l0.9,0.7l0.5,0.4c0.4,0.4,0.8,0.8,1.2,1.2
								c0.5,0.5,1.1,1,1.6,1.5l-1.2-3.3c0,0.5,0,1,0,1.5l3-3.7l-0.4,0.2c-0.1,0-0.2,0.1-0.2,0.1l0,0c0,0-0.1,0.1-0.1,0.1
								c0,0-0.1,0-0.1,0.1l-0.1,0l-0.4,0l2.6,2c-0.1-0.2-0.3-0.5-0.4-0.6l-0.1-0.1l-0.1-0.1l0,0c0,0,0,0,0-0.1
								c0.2-0.6,0.5,0.2,0.8,0c0,0,0,0,0,0c0,0,0,0,0,0c0,0,0-0.1-0.1-0.2c-0.1-0.1-0.1-0.3-0.2-0.5c0-0.1-0.1-0.2-0.1-0.3l-0.1-0.2
								l-0.1,0c0,0,0,0-0.1,0l-0.1-0.2c0-0.1-0.1-0.3-0.2-0.4c-0.1-0.1-0.1-0.4-0.2-0.7c-0.1-0.3-0.1-0.5-0.2-0.8
								c-0.3-0.4-0.6-0.9-0.9-1.4l-1-1.6l-0.5,0l-0.5,0l-4.3-0.4l0.5,2.4c0.2,0.8,0.3,1.6,0.5,2.4c0.2,0.7,0.4,1.4,0.7,1.8l0.6-0.7
								c-0.5,0.7-0.6,1.1,0,1.3c-0.9,1.2-2.1,2.1,1.1,1.7l0.8-0.1l0.6-1.7c0.1-0.3,0.3-0.8,0.4-1.3c-0.1-0.6-0.1-1.5-0.1-2.6
								l-2.7,1.4l0.4,0.1l-1-1c0.1,0.2,0.2,0.4,0.3,0.7c0,0.1,0,0.2,0,0.3c0,0.1,0,0.2,0,0.4c0,0.2,0,0.3,0,0.5c0,0.2,0,0.3,0,0.5
								c0,0.1,0,0.2,0,0.3c0,0.1,0,0.1,0,0.2c0,0.1,0,0.2-0.1,0.3c-0.1,0.2-0.1,0.4-0.2,0.5l1,0.2c0.1,0.4,0.1,0.7,0.1,1
								c0.2,0.4,0.4,0.7,0.5,1c0.1,0.2,0.2,0.4,0.3,0.6l0.2,0.4l0.7,0.3c0.2,0.1,0.3,0.1,0.4,0.2c0.1,0.1,0.3,0.1,0.4,0.2
								c0.2,0.1,0.4,0.3,0.5,0.4c0.2,0.3,0.3,0.5,0.7,0.9c0.2,0.1,0.5,0.1,0.9,0.1c0.2,0,0.5,0,0.8-0.1c0.3,0,0.5,0,0.8-0.1l1.7-0.3
								l0.5-2.5c0.1-0.4,0.2-0.9,0.2-1.5l0.1-1.3l-1.1-1.2c-0.2-0.3-0.5-0.5-0.8-0.8l0.6,1l1,1.6l-0.2,0.7l-0.1,0.5
								c0-0.2,0-0.3,0-0.5l-0.1-1.6l-0.7-0.6c-1-0.8-2.1-1.3-2.9-2.5c-0.2-0.5,0.7,0.1,1.3,0.4l-0.7-0.5l-0.4-0.3l-0.6-0.5l-0.4-0.2
								l-0.2-0.1l-0.1-0.1l-0.6-0.2l-1.1-0.5l-2.2-1c0.1-0.6,0.5-0.7,1.8-0.3c-2.5-1.7-2.5-1.2-2.6-0.8c-0.1,0.4-0.3,0.6-3.3-1.5
								c-0.9-1.1,0.7-0.2,1.7,0c-2.4-2.5-4.7-3.1-7.8-4.6c0.5-0.7,2.2,0.6,0.2-1.4c0.2,0.7,0.1,1.5-1.8,0.3c1.4-0.1-1.1-1.2-2.6-2.8
								c0.2,0.5-0.2,0.7-1,0.3c-0.9-0.5-1.4-1.4-2.6-2.2l1.6,2.3c-3.4-1.7-4.4-3.9-6.4-5.9c0.3,0,0.7,0.2,1.2,0.5l-0.7-0.7l-0.3-0.3
								l-0.2-0.2l-0.3-0.2l-0.3-0.2l-0.2-0.1l-0.4-0.3c-0.2-0.2-0.5-0.4-0.7-0.6c-0.5-0.4-1-0.8-1.6-1.1c-1.1-0.7-2.3-1.4-3.7-1.9
								l0.3,0.1c-6.5-2.9,1.1,2.3-6.3-1.2c-2.2-1.5,2.5-1.7-3.4-4.1c2.2,2.1-4.4-0.5-7.6-2.1l4,0.4c-1.2-0.7-3.6-1.6-4.2-2.2l0,0.4
								c-0.5,1.3-3.9-2.5-6.6-3c3.7-0.1,3.7,0.3,5.2-1c-2.7-0.3-5.7-1-9.6-3.4l4,0.6c-2.6-1.7-5.7-2.9-8.7-3.9c-1.5-0.5-3-1-4.4-1.5
								c-1.4-0.5-2.8-0.9-4-1.4c1.7-0.2,0.2-1.6,2.6-1.2l-5-3.1l2-0.1c-2.7-0.3-4.4-2.5-5-1c0.7,0.2,0.7,0,1.6,0.7
								c-0.4,0.3-1.8,0.6-4.3-1.2c-1.5-1.5,1.3,0.2,1.1-0.5c-2-0.5-1.5-1.5-3.4-2.2l1.1,1.6c-0.8,0-1.6-0.5-2.3-1
								c-0.7-0.6-1.5-1.2-2.4-1.6c2.2,1.1,1.8,0.2,1.4-0.8l0,0.2c-1.2-0.8-3.2-1.4-3.7-2.4l1.7-0.3l-2.3-0.5
								c-0.6-0.6-0.8-1.3,0.5-0.7c-2.5-2.3-2.8-1.7-3.4-1.3c-0.3,0.2-0.6,0.3-1.2,0.1c-0.6-0.2-1.5-1.1-3-2.7
								c0.4-0.3,1.3,0.1,2.9,1.8c0.8-0.4,0.6-1-0.9-2.8c0-0.1,0.1-0.1,0.1-0.1c-0.8-0.7-1.7-1.5-2.6-2.3c-0.4-0.4-0.9-0.8-1.3-1.2
								c-0.4-0.4-0.9-0.8-1.3-1.3c-0.8-0.8-1.7-1.6-2.5-2.2C202.4,373.8,201.6,373.3,201,372.9z"/>
							<path class="st1" d="M210.7,381.5c0.9,0.8,1.7,1.5,2.4,2c0.7,0.5,1.4,0.9,1.8,1.1c-0.1-0.2-1.2-1.2-2-1.9
								C211.9,381.9,210.9,381.2,210.7,381.5z"/>
							<path class="st1" d="M157.6,69.3c-0.2,0.2-0.4,0.5-0.6,0.7C157.3,69.7,157.4,69.5,157.6,69.3z"/>
							<path class="st1" d="M172.2,56.9c-0.3,0-0.6,0.1-1,0.3C171.3,57.5,171.6,57.5,172.2,56.9z"/>
							<path class="st1" d="M115.9,234.3C115.9,234.3,115.9,234.2,115.9,234.3C115.9,234.2,115.9,234.3,115.9,234.3z"/>
							<path class="st1" d="M120.6,127.6c0.3-1.7,0.2-2.4,0-2.6C120.2,126,120.1,126.9,120.6,127.6z"/>
							<path class="st1" d="M110.9,162.4c0,0.2,0.1,0.5,0.1,0.7C111,162.5,111,162.4,110.9,162.4z"/>
							<path class="st1" d="M117.8,239.5c-0.9-1.3-1.2-3.5-1.9-5.2C116.4,235.7,116.6,238.8,117.8,239.5z"/>
							<polygon class="st1" points="191.6,43.7 190.2,45.2 191.8,43.8 							"/>
							<path class="st1" d="M176.2,53.1c-0.8,0.3-3.2,2.4-2.2,2.2C174.6,54.5,175.4,53.7,176.2,53.1z"/>
							<path class="st1" d="M129.3,102.7l0.3,1c0.1-0.6,0.2-1.1,0.2-1.7C129.6,102.3,129.4,102.5,129.3,102.7z"/>
						</g>
					</g>
				</g>
			</g>
		</g>
	</g>
	<g id="Stroke_10_Felt">
		
			<image style="overflow:visible;opacity:0.75;" width="1311" height="761" xlink:href="C98608CF.png"  transform="matrix(0.24 0 0 0.24 51.96 244.92)">
		</image>
		<g>
			<polyline class="st0" points="114.2,376.8 111.7,377.5 108.4,378 103.4,378.8 98,379.7 92.2,381.4 86,384 81.2,386.7 79.7,387.6 
				75.2,390.5 74.2,391.3 69.9,394.8 66.8,397.2 65.1,398.6 64.4,399.8 64.3,401 64.4,402.5 65.2,403.1 66.6,402.7 69,401.7 
				72.5,400.2 78.4,397.4 83.3,394.7 85.8,393.2 90.5,390.4 94.1,388.2 98.7,385.4 101.2,383.9 106.1,381.3 108.3,380.2 
				113.3,377.7 115.6,376.5 120.6,373.9 123.3,372.5 128.2,369.9 131,368.4 136,365.9 138.5,364.6 143.5,362.1 146.6,360.4 
				151.4,357.7 155.6,355.3 160.3,352.6 164.7,350 169.4,347.2 172.8,345.3 177.7,342.6 179.8,341.6 184.9,339.2 187.3,338 
				192.4,335.6 196.7,333.4 201.7,330.9 206.8,328.1 211.6,325.4 216.4,322.6 221.3,319.9 225.6,317.7 230.6,315.1 235.6,312.7 
				240.8,310.3 245.6,308.2 250.9,305.9 254.7,304.3 260,302.1 262.9,300.9 268.2,298.7 271.3,297.4 276.6,295.1 279.6,293.8 
				284.8,291.5 287.4,290.4 292.6,288 295.2,286.8 300.1,284.2 303.4,282.3 308.2,279.6 311.9,277.4 316.5,274.5 320.4,272 
				324.8,269 328.4,266.4 332.7,263.3 335.8,261.1 340.2,258.1 344.4,255 			"/>
			<g>
				<g>
					<g>
						<g>
							<polygon class="st1" points="343.1,253.2 342.5,252.9 341.4,254.7 							"/>
							<path class="st1" d="M326.9,264c-1,1.6-3.5,3.9-2.8,5l1.9-2.8c0.9,0.6,2.6-0.7,3.9-2l-1.7,1.3c0.4-0.4-0.3-0.7,0.1-1.2
								c2.9-1.4,2.7-3.1,5.8-3.9l-0.1,0.2c0.5-0.6,1-1.3,1.5-1.9c0.7-0.3,0.7,0.3,0.6,0.5c1.4-1.6,2.4-2.9,4.7-4.6
								c-2.7-0.1-4.2,4.7-7,4.5l0.1-0.2C332,261.1,328.8,262,326.9,264z"/>
							<path class="st1" d="M336.2,259.3c0,0-0.1,0.1-0.1,0.1C336.1,259.5,336.2,259.4,336.2,259.3z"/>
							<path class="st1" d="M235.4,308.5l0,0.3C235.5,308.6,235.6,308.5,235.4,308.5z"/>
							<path class="st1" d="M268.6,298.2c-0.1,0-0.1,0-0.2,0C268.4,298.7,268.5,298.5,268.6,298.2z"/>
							<path class="st1" d="M70.4,397.3l-0.8-0.1C69.9,397.4,70.1,397.4,70.4,397.3z"/>
							<path class="st1" d="M95,384.6L95,384.6C95.1,384.6,95,384.6,95,384.6z"/>
							<path class="st1" d="M74.2,389l-0.3-0.2C73.9,389,74,389.1,74.2,389z"/>
							<path class="st1" d="M87.2,380.7c0.4-0.1,0.8-0.2,1.2-0.3C88.1,380.3,87.6,380.5,87.2,380.7z"/>
							<path class="st1" d="M94.6,384.9c0.1-0.1,0.2-0.2,0.4-0.3C94.9,384.7,94.7,384.8,94.6,384.9z"/>
							<path class="st1" d="M70.3,403.8l0.9,0.6C71.1,404.2,70.7,404,70.3,403.8z"/>
							<path class="st1" d="M90.3,378.6c0.1,0,0.3,0.1,0.4,0.1c0.1,0,0.1,0,0.2,0l0.3-0.1c0,0,0.1,0,0.1,0c0,0-0.1,0-0.1,0
								C90.9,378.5,90.7,378.5,90.3,378.6z"/>
							<path class="st1" d="M324.4,265.8c0.3-0.3,0.7-0.5,1.1-1C325.1,265.1,324.7,265.5,324.4,265.8z"/>
							<path class="st1" d="M145.3,364.9c-0.1,0.1-0.1,0.3-0.1,0.5C145.5,365.1,145.4,365,145.3,364.9z"/>
							<path class="st1" d="M101.5,387.4l-0.1,0.1c0.1,0,0.1,0,0.2,0L101.5,387.4z"/>
							<path class="st1" d="M114,380.7c0,0.1-0.1,0.2-0.1,0.3C114,380.9,114,380.8,114,380.7z"/>
							<path class="st1" d="M92.7,394c-0.1,0.2-0.2,0.3-0.3,0.5L92.7,394z"/>
							<path class="st1" d="M83.1,398.5c0.6,0.1,0.3,0.6,0,1.1c2.6-0.9,2.8-2.4,5.6-3.1l-1.3,0.3c1.2-1.5,3.9-3.3,5.7-3.3l-0.3,0.5
								c1-1.5,4-1.7,4.3-2.6c-0.8,0-0.3-0.6-1.4-0.4l3.2-2.9l0.9,0.9c0.6-0.5,1.1-1,1.6-1.5c-0.4-0.1,0.3-0.4,1-0.8
								c0.7-0.4,1.5-0.8,1.2-1.4c1.3-0.2,0,1.1-0.1,1.8c0.9-0.9,1.3-0.5,1.9-1.7l1.6,0.4c0.8-0.7,1.6-1.5,2.5-2.2
								c-0.1,0.2,0.1,0.2,0,0.3c0.9-1.5,3.6-1.2,4.6-3.5c-0.1,0.1,0,0.1,0,0.2c0.5-1.3,3.1-1.9,4-2.1c1.4-1,0.1-1.3,0-1.7
								c4.5-2,3.1-1.3,6.1-4.4c2.8,0.1-1.5,3.4,1.7,2.8c0-0.8,1.7-2.3,3.7-3.7c2.2-0.6,5.7-1.9,8-2l-0.6-0.7l2.6-1.9l-1,2
								c0.3-0.5,1.5-1.7,2.2-2.7c2.5-2.2,2.6,0.9,4.2-1.5c0.1,0,0.3,0.1,0.4,0.1c0.4-1,2.4-1.8,4.5-3.2l-0.2,1.5l-1.5,0.6
								c1.3,0.6,2.2-1.5,3.6-2.2c1.2-1.1,0-1.6,0.6-2.3c0.5-0.2,1.1-1,1.7-0.9c1.4-0.4,0.8,1.1,0.7,1.8c0.5-1.7,0.9-1.7,3.1-3.6
								c0.4,0.4,0.4,0.7,0.1,1c0.4-0.4,0.7-0.9,0.7-1.5l1.2,0.1c3.2-0.7,1.6-3.5,5-5.1c-0.5,1.1,2.7-1.8,4.1-1.7
								c-1,0.8,1.4,1.2,1.1,2.2c2.8-1.1,0.3-1.8,2.3-3.3l-0.1,1.8c1.7-1.7,0.1-1,1.9-2.5c-0.4,0.7,1.1-0.2,0.1,0.9
								c2.8-1.3,2-1.1,4.5-2.2l-0.5-1.4c0.7-0.6,1.3-0.1,1.7,0c-0.3,0.2-0.9,0.4-0.7,0.5c1.5,0.6,1.2-1.4,2.8-0.9
								c-0.5-0.3-1.1-0.7-0.1-1.3c0.1,0.9,1.9,0,2.2,0.3c-0.9-0.2,2.1-1.3,1.8-2.2c1.5,0-0.1,0.8,0.1,1.3c0.5-1.5,4.1-2.1,4.7-3.1
								c0.1,0.1,0.1,0.1,0.2,0.2c1-1.2,3-2.4,5-4.5l-0.5,1.2c2.7-0.9,0.8-2.3,2.8-3.3c0.1,1.3,3.4-1.8,3-0.2
								c0.9-1.2,2.1-2.2,2.4-3.5c1.5,0-1.4,2.6,0.3,2l1.4-1.5l0.6,0.4c-0.2-0.5,1.3-1.3,1.1-1.6c0.6,0.5,1.6,0.6,1.8,1.1
								c1-0.8,2.9-1.1,3.4-2.2l0.3,0.3c0.3-1.8,3.1-2.1,2.9-3.7l1.1,0.3c1.6-1.1,0.5-2.2,1.1-2.9c0.6-0.4,1.4-1,2.1-1.3
								c-1.7,2,1.6,0.4,2.3,0.6c0.9-0.4,3.3-1.9,3.7-2.9c-0.7,1.2,0.2,1.4-1.6,2.4c1.6,0.7,2.6-1.8,4.8-2.6l0.3,0.6
								c2.8-1.9,2.4-3,3.2-4.6c0.7,0.6,0.5,0.9,0,2.1c1.1-0.3,2.4-0.9,3.7-1.6c1.3-0.7,2.6-1.4,3.8-1.9c1,0.2,0.6,0.7,0,1.3
								c2.1-1.7,5.3-2.2,6.2-4.2c-0.4,0.8,1.1-0.1,2.1-0.2c-0.1-0.3-0.1-0.7,0-0.7c1.2-1.2,4.2-3,6.2-3.3l-0.5,0.7
								c4.1-1.4,4.8-4.5,9.5-5.3c0.9,0-0.3,1.4,1.2,0.7c0.6-0.8-0.1-1.7,2-2.3l0.2,0.9l1-1.5c-1-0.4-3.2,0.8-1.9-0.7
								c2.1,0.1,1.2-1.5,3.8-1.4c-0.5,0.3-0.8,1.3-1.1,1.8c5-0.9,6-3.6,11.1-4.5c2-1.7,4.9-3.1,6.2-4.5c0.3,0.9,0.6,1.7-0.1,2.9
								c2-0.7,2.1-3.1,4-2.5c0.2-0.8,1.5-1.6,2.6-2.4c1.2-0.9,2.2-1.7,2-2.7c0.2,0.3,2-1.1,0.5,0.9c2.3-1.9,4.1-0.4,5.3-1
								c0.6-0.4-1.3-0.6,0.2-1.5c0.2,0,0.4,0.1,0.6,0.1l0.4-0.7c0.8,0-0.2,1.2,0,1.6c2.3-0.8,2.9-2.9,5.4-4.4l-0.3,0.5
								c0.9-0.5,1.7-0.9,2.5-1.4l-0.1,0.2l1.7-1.7l0.2,0.4c0.4-0.4,0.4-0.7,1-1.1l0.1,0.6c0.2-1.2,2.2-3,3.3-3.8l0.4,0.1l2-2.7
								c1.7-0.4-1,2.3,1.5,0.1l-0.1,1.5c1.7-1.7,2.4-1.4,3.5-2.6c-0.9-0.1-1.8,0.6-1.4-0.3c2.3,0.1,2.3-2,3.4-3.5
								c-0.7,0.5-1.2,0.9-1.3,1.8c-0.8,0.5-0.6-0.3-1.2,0l-0.7,1.3l-0.8-0.5l-1.6,1.8c-0.4-0.9-1.8,1.1-1.6-0.3
								c-1.1,1.2-2.3,1.2-3,2.7c-1.2,0.1,1.1-1.5,0.1-1c-1.3,1-2.6,2-3.9,2.9c-1.4,0.9-2.8,1.8-4.2,2.6c-2.9,1.6-5.9,3.2-8.9,4.7
								l0.4-0.7c-0.4,0.7-1,1.4-1.2,1.9c-0.7-0.1-2.1,0.2-3.4,0.7c-0.7,0.2-1.3,0.5-1.8,0.9c-0.6,0.4-1,0.8-1.2,1.3
								c-0.2,0,0-0.3,0.1-0.5c-2,1.1-6.1,1.8-9,3.2c-0.6,1.9-4.8,1.1-5.1,3.5l0.4-0.7c1.2,0.1-0.9,1.9-1.1,2.6
								c-1.4-0.9-0.5-0.9-1.9-1.6l1.4-0.1l-0.7-0.9c-2.6,4.2-7.5,1.8-9,4.7c0.1-0.2,0-0.3,0.1-0.5c-1.8,0.1-2.4,1.8-3.4,2.7
								c-0.3-0.5,0.3-1.1,0.8-1.8c-2.9,0.7-7,4.1-10.3,4.6c-0.8,1.1,0.8,0.8-0.1,1.7c-1,0.2-1.9-0.1-0.9-0.9
								c-3.2-0.2-8.3,4.5-12.9,5.2c-1.8,1.7-0.3,1.5-3.3,3.4c0.5-0.8-1.5-1.3,0.4-2.2l0-0.6c-3.3,1.4-7.6,3.3-8.6,5.7
								c-0.6-1-0.7,0.1-2.2,0.1c-0.4,0.4,0.1,0.1,0.4,0.1c-0.7,1.5-1.8,0.9-2.5,1.4l0.2-0.3l-1.9,1.9c-0.4,0.1-1.1,0.1-1.4-0.1
								l0.4,0.7c-1.2,0.7-1.1-0.6-2.5,0.4l0.6,0.4c-1.1,0.2-2.2,1.8-2.9,1.1c-0.1-0.1,0.1-0.2,0.4-0.4c-2.1-0.3-3.6,2.5-5.7,3
								l1.1,0.9c-1.5,1.4-1.2,0.4-1.4-0.1c-1.2,0.7-1.6,0.4-3.2,1.2c-0.6,0.7-0.1,0.7-0.2,1.2c-0.6,0.2-1.1,0.4-1.7,0.6l0.6-1.2
								c-1.4,3.1-6.1,3.1-6.9,5.5c-1.1,0.1,0.5-1.2-0.2-1.1c-3.3,0.7-5.9,4.4-8.8,4.7c-2.2,0.5-4.4,1.5-6.6,2.6
								c-2.2,1.1-4.5,2.2-6.9,3.1l0.3,0.3l-3.3,1.4c-0.5,1.2-2.8,2-3.6,3.6c0-0.3-0.5-0.5-0.3-0.9c-1.3,0.9-2.5,2-3.5,2.1l0.3-0.5
								c-3,1.5-7,3.8-8.1,5.3c-0.9,0.6-1.2,0.1-1.7-0.2c-1.7,0.9-2.6,1.9-3.6,3.2c-0.4,0.1-0.9,0.1-1.5,0.1l-0.2,1.1
								c-0.8,0.3-0.5-0.6-1.2-0.5c-2.1,2.4-5.6,3.2-7.4,4.2l0.5,0.3c-0.6,0.7-2.4,0.9-1.7,0.1c-3.9,1.5-4.8,4.1-9.9,6.4
								c-1.5-1.1-4.3,2.8-5.9,1.6c-1.9,1.5-3.6,1.6-4.5,3.3c-0.1-0.1-0.3-0.1,0-0.3c-1.1-0.2-3.7,1.7-5.6,3.2l-0.4-0.4
								c-0.2,1.5-4,3-4.3,4.5c-0.4-0.1,0.2-0.7,0.4-1c-1.6-0.5-1.7,1.5-3.2,2c0-0.3-0.6-0.4-0.4-0.8c-1.4,0.3-2.7,0.9-4.2,1.7
								c-1.4,0.8-2.9,1.6-4.4,2.7c-2.9,2.1-5.8,4.3-9,5.7c-1.7,1,1.3,0.7-0.9,1.9c-0.9-0.1,0.4-1.7-1.1-1.1c-0.6,1.2-1,1.3-2.4,2.1
								c0-0.5-0.3-0.6,0.5-1.4c-1,0-2.7,2.8-4.7,2.7c0.3,0.3,0.1,0.6-0.1,1c-0.9,1.1-2.3,1.6-3.5,1.8c-1.2,0.2-2.2,0.2-2.2,0.6
								c0,0-0.7,0.5,0,0.3c-0.9,0.4-2.2,0.8-2.2,0.2c-0.3,0.5-0.5,1.1-1.1,1.5l0.1-0.8c-0.3,0.3-0.6,0.9-1,1.2l0.8,0.1
								c-1.2-0.1-2.6,2.1-3.1,0.8l0.3-0.2l-2.1,0.3c-0.1,0.2-0.3,0.5-0.5,0.7c-0.1,0.1-0.2,0.2-0.3,0.3c0,0.1,0,0.1,0,0.2
								c0,0,0,0.1-0.1,0.1c0,0-0.2,0.1-0.3,0.1c-0.2,0.1-0.5,0.2-0.8,0.2l2.9,0.6c0,0,0,0-0.1-0.1c0.1-0.4,0-0.8-0.3-1.1l1.5,2.9
								c0-0.2,0-0.4,0-0.7c0-0.1,0-0.2,0-0.4l0-0.1c0,0,0,0,0,0l0,0c0-0.1-0.1,0-0.1,0c-0.1,0.1-0.2,0.2-0.2,0.2c0,0,0-0.1,0-0.1
								c0,0,0,0,0,0l0.3,0.3c0,0,0-0.1-0.1-0.1c0,0-0.1,0,0-0.2c0.1-0.2,0.3-0.4,0.5-0.6c0.3-0.4,0.7-0.7,1.1-1.1
								c0.7-0.6,1.3-1.1,1-1c1.1-0.8,2.7-1.7,2.4-1c0.7-0.9,2.4-2.3,2.4-3.3c0.8-0.2,1.5-0.2,2.3-0.3c0.1-2.1,3.9-1.8,3-3.4
								c1.2-0.4,1.1,0.1,1.9-0.1c0.9-1.6,2.6-2.3,4.1-3l0.1,0.1c0.2-0.1,0.5-0.3,0.5-0.3c0,0,0,0,0,0l0.3-0.1
								c0.2-0.1,0.4-0.2,0.5-0.3c0.4-0.2,0.7-0.5,1.1-0.7c0.8-0.5,1.6-1.1,2.6-1.5l1,1.1c0.1-0.1,0.2-0.2,0.3-0.2
								c0,0,0.1-0.1,0.1-0.1l0-0.1c-0.1-0.1,0.1-0.2,0.2-0.4c0.1-0.1,0.2-0.3,0.4-0.4c0.3-0.3,0.5-0.4,1-0.5
								c0.3,0.1,0.1,0.3-0.2,0.4c1.1-0.6,2.7-0.8,3.7-0.7l0.1-0.1c0,0,0,0,0-0.1c0,0,0-0.1,0-0.1c0,0,0-0.1,0-0.1
								c0.1-0.1,0.2-0.1,0.3-0.2c0.2-0.1,0.4-0.2,0.5-0.3c0.4-0.2,0.7-0.3,1.1-0.4c0.7-0.3,1.4-0.6,2-1.2c1.6,1-2,0.9-0.6,1.8
								c2.7,0.2,5.2-0.8,8-1.9c0.3,0.2,0,0.5-0.1,0.8c0,0,0.2-0.2,0.6-0.5c0.2-0.1,0.4-0.3,0.6-0.5c0.1-0.1,0.2-0.2,0.4-0.3l0.1-0.1
								l0.2-0.1l0.3-0.2l0.4-0.3c0.1-0.1,0.2-0.2,0.2-0.3c0.1-0.2,0.3-0.4,0.4-0.6c0.3-0.4,0.5-0.8,0.7-1.1c0.4-0.7,0.5-1.3,0.1-1.6
								c0.5-1.1,1.1-1.8-1.5-1.8c-0.1,0.2-0.4,0.4-0.6,0.6c-0.2,0.2-0.6,0.4-0.8,0.5c-0.1,0-0.1,0.1-0.2,0.1c-0.1,0-0.2,0-0.3,0.1
								c-0.2,0-0.4,0.1-0.5,0c-0.3,0-0.6-0.1-0.8-0.4l0,1c-3.3,0.9-0.6-1.9-4.6-1.3l0.9,0.2c-0.7,0.2-1.3,0.9-2.2,0.7
								c-0.3-0.2,0.2-0.4,0.5-0.7c-1,0.6-2.1,1.2-3.1,1.8c-0.2-0.5-0.2-0.8,0.4-1.4c-3,0.6,0.9,1.6-2.9,1.9c-0.7-0.3,0.1-0.6,0.6-1
								c-0.3-0.1-0.6-0.1-0.9-0.1c-0.1,0-0.3,0-0.4,0l-0.3,0l-0.3,0.1c-0.2,0.1-0.4,0.1-0.5,0.2c-0.1,0.1-0.2,0.1-0.3,0.2
								c-0.2,0.1-0.4,0.3-0.6,0.4c-0.4,0.3-0.8,0.6-1.3,0.9c-0.3-0.8,0.9-1.1-0.7-1.1c0.4,0.3,0.8,1-0.2,1.4
								c0.1-0.5-0.1-0.5-0.5-0.4c-0.2,0-0.5,0.1-0.7,0.2c-0.1,0-0.3,0.1-0.4,0.1c-0.2,0-0.3,0.1-0.5,0.1c0.3,0.1,0.4,0.4,0.1,0.7
								c-0.1,0.1-0.2,0.2-0.3,0.2c-0.5,0.3-1,0.2-1.7,0.5l1.6,0.3c-1.5,1.5-2.9,0.7-4.4,0.9c0.1-0.2,0.2-0.4,0.5-0.5
								c-0.4,0.1-0.8,0.1-1.2,0.2l-0.6,0.1l-0.3,0.1l-0.5,0.1c-0.3,0.1-0.5,0.2-0.8,0.4c-0.2,0.1-0.4,0.2-0.6,0.3
								c-0.4,0.2-0.7,0.6-1.1,1l0.1-0.2c-2.8,2.5,1.7,0.7-1.6,3.5c-1.3,0.6-0.9-2.8-3.1-0.1c1.7-0.2-0.8,2.6-2.1,3.9l0.7-2.4
								c-0.6,0.4-1.5,1.5-1.9,1.6l0.3,0.3c0.5,0.5-0.1,0.8-0.8,1.2c-0.7,0.4-1.5,0.9-1.8,1.6c0.1-2.6,0.4-2.3-0.5-4
								c-0.4,1.6-0.9,3.4-2.9,4.7l0.6-2.4c-1.1,0.8-2.1,1.9-2.9,3.1c-0.4,0.6-0.8,1.3-1.1,2c-0.2,0.3-0.3,0.7-0.5,1
								c-0.1,0.2-0.1,0.3-0.3,0.5c-0.1,0.2-0.2,0.4-0.3,0.6c-0.1,0.6-0.3,1.2-0.4,1.7c-0.3-0.6-0.6-0.7-1-0.8
								c-0.4-0.1-0.6-0.3-0.4-1.4l-1,1.6l-0.1,2.3c0.1,0.6,0.1,0.7,0.1,1c-0.4-0.3-0.8-0.4-1.3-1c0.1,0.1,0.1,0.2,0.2,0.4l0.1,0.2
								c0,0,0,0.1,0.1,0.1c0.1,0.1,0.2,0.2,0.2,0.4c0.1,0.2,0.2,0.5,0.3,0.7l0.8,2.3l0.5,0.2c0.6,0.3,1,0.5,1.5-0.3
								c-0.4,0-0.5,0.1-0.9-0.3c0.2-0.2,0.8-0.5,1.5-0.3l1.2,0.3l0,0c0.3-0.2,0.6-0.4,1.1-0.5c0.2,0,0.3,0,0.4,0.1
								c0.1,0,0.1,0.1,0.1,0.2c-0.1,0.1-0.4,0.3-0.5,0.4c-0.1,0.1-0.2,0.3-0.1,0.4c0.2-0.2,0.5-0.4,0.7-0.4c0.2-0.1,0.3-0.1,0.5-0.1
								c0.2,0,0.2,0,0.4,0c0.2,0,0.5-0.1,0.8-0.4l-1.1-0.2c0.3-1.1,1.6-0.7,2.3-1.6c-1,0.9-0.4,1.2,0.3,1.5l-0.1-0.1
								c0.7-0.4,1.3-1.3,2-1.1l-0.1,1.4l0.6-1.3c0.5,0,0.9,0.3,0.4,0.8c3.5-0.8-1.2-2.4,3.4-3.3c0.1,0.5-0.2,1-1.4,1.2
								c0.1,0.8,0.6,1.1,1.9,0.8c0,0,0,0.1,0.1,0.1c1.1-0.5,2.4-1,3.5-1.7C81.7,400,82.6,399.2,83.1,398.5z"/>
							<path class="st1" d="M77.1,402.4c-1.2,0.5-2.2,1-2.5,1.4C74.9,403.9,77.5,403.1,77.1,402.4z"/>
							<path class="st1" d="M239.7,313.7c-0.1,0.1-0.2,0.2-0.4,0.3C239.5,313.9,239.6,313.8,239.7,313.7z"/>
							<path class="st1" d="M248.6,309.3c-0.2-0.1-0.4-0.1-0.6-0.1C248.1,309.5,248.3,309.6,248.6,309.3z"/>
							<path class="st1" d="M157.9,357.5L157.9,357.5L157.9,357.5z"/>
							<path class="st1" d="M208.1,331.3c0.6-0.8,0.7-1.2,0.6-1.6C208.2,330.1,207.9,330.6,208.1,331.3z"/>
							<path class="st1" d="M190.6,339.6c-0.1,0.1-0.2,0.2-0.2,0.3C190.6,339.8,190.6,339.7,190.6,339.6z"/>
							<path class="st1" d="M155.6,359.6c0.5-0.8,1.6-1.3,2.3-2C157.3,358.2,155.7,358.6,155.6,359.6z"/>
							<polygon class="st1" points="259.3,303.3 258.6,304.3 259.4,303.5 							"/>
							<path class="st1" d="M250.8,307.3c-0.4,0-1.8,1-1.2,1.2C249.9,308,250.4,307.7,250.8,307.3z"/>
							<polygon class="st1" points="218.5,322.2 218.5,323 219,322.2 							"/>
						</g>
					</g>
				</g>
			</g>
		</g>
	</g>
	<g id="Stroke_11_Felt">
		
			<image style="overflow:visible;opacity:0.75;" width="245" height="1002" xlink:href="C98608CA.png"  transform="matrix(0.24 0 0 0.24 371.64 273.48)">
		</image>
		<g>
			<polyline class="st0" points="382.1,318.3 382.6,317.3 383.1,316.6 383.8,315.2 384.9,312.9 386.4,309.5 388.3,305.3 390,301.1 
				391.4,296.7 392.6,293 393.9,290.5 394.7,289.9 394.9,292.5 394.6,296.8 394.2,300.3 393.9,304.6 393.4,310.9 393.1,315.3 
				392.9,319.6 392.8,321.9 392.6,326.3 392.5,331.5 392.6,335.8 392.7,340.5 392.7,344.8 392.7,349.6 392.6,353.9 392.4,357.9 
				392.1,362.2 391.8,366.5 391.4,370.8 391.3,374.7 391.2,379.1 391.4,382.5 391.7,386.9 392,389.9 392.4,394.2 392.9,398.2 
				393.5,402.6 394.2,408.3 394.6,412.6 395.1,416.9 395.4,419.5 396,423.8 396.8,429.9 397.4,434.2 398.1,439 398.9,443.3 
				399.6,447 400.4,451.3 400.9,454.8 401.4,459.1 401.7,462.5 402.2,466.9 402.6,470.7 403.1,475 403.6,478.9 404.2,483.2 
				404.6,486.3 405.1,490.6 405.3,491.5 404.8,487.2 404.1,482.8 403.2,478.6 402.3,474.3 			"/>
			<g>
				<g>
					<g>
						<g>
							<polygon class="st1" points="400.2,474.7 399.6,475.1 400.7,476.2 							"/>
							<path class="st1" d="M402,487.5c0.8,1,1.5,3.2,2.8,3.1l-1.4-1.9c0.5-0.2,0.7-0.7,0.7-1.2c0-0.5-0.2-1.2-0.5-1.7l0.3,1.4
								c-0.2-0.3-0.8,0-1-0.4c0.2-2.2-1.2-2.4-0.6-4.6l0.1,0.1l-0.9-1.4c0.1-0.5,0.6-0.4,0.8-0.3c-0.8-1.2-1.5-2.2-1.9-4
								c-1.5,1.8,2.2,3.7,0.7,5.5l-0.1-0.1C402.1,483.6,401.2,485.8,402,487.5z"/>
							<path class="st1" d="M402.3,480.5l0.1,0.1C402.4,480.6,402.4,480.6,402.3,480.5z"/>
							<path class="st1" d="M400.5,427.5l-0.3,0C400.3,427.6,400.4,427.7,400.5,427.5z"/>
							<path class="st1" d="M400.6,450.7c0,0,0-0.1,0-0.1C400.2,450.5,400.3,450.6,400.6,450.7z"/>
							<path class="st1" d="M397.5,303.6l0.5-0.4C397.5,303.3,397.4,303.4,397.5,303.6z"/>
							<path class="st1" d="M384.6,304.3L384.6,304.3C384.6,304.3,384.6,304.3,384.6,304.3z"/>
							<path class="st1" d="M394.5,293.3l0.4,0.1C394.7,293.3,394.6,293.3,394.5,293.3z"/>
							<path class="st1" d="M392,302.9c-0.2,0.2-0.4,0.5-0.5,0.7C391.8,303.6,392,303.2,392,302.9z"/>
							<path class="st1" d="M384.6,303.9c0,0.1,0,0.2,0,0.3C384.6,304.2,384.6,304,384.6,303.9z"/>
							<path class="st1" d="M391.7,301.3l-1,0.3C391,301.6,391.3,301.4,391.7,301.3z"/>
							<path class="st1" d="M391.8,305.6c-0.2,0.1-0.4,0.2-0.5,0.4C391.5,305.9,391.7,305.8,391.8,305.6z"/>
							<path class="st1" d="M402.3,489.5c0-0.3-0.1-0.6-0.2-1C402,488.9,402.1,489.2,402.3,489.5z"/>
							<path class="st1" d="M389.1,357.5c-0.1-0.1-0.2-0.1-0.4-0.2C388.8,357.6,388.9,357.6,389.1,357.5z"/>
							<path class="st1" d="M389.5,324.7l0-0.1c0,0-0.1,0.1-0.2,0.1L389.5,324.7z"/>
							<path class="st1" d="M389.5,334.4c-0.1,0-0.1-0.1-0.2-0.1C389.4,334.4,389.5,334.4,389.5,334.4z"/>
							<path class="st1" d="M388.8,317.3c-0.1-0.1-0.2-0.2-0.3-0.4L388.8,317.3z"/>
							<path class="st1" d="M390.2,310.3c-0.4,0.3-0.7-0.1-1-0.4c-0.6,1.7,0.6,2.4-0.4,4.2l0.5-0.8c0.6,1.2,0.6,3.4-0.3,4.4
								l-0.3-0.3c0.7,1.2-0.8,2.9-0.2,3.4c0.4-0.4,0.7,0,1.1-0.6l0.7,2.9l-1.3,0.2l0.4,1.5c0.5-0.3-0.5,2,0.7,2.1
								c-0.5,0.8-1-0.4-1.5-0.7c0.3,0.9-0.2,0.9,0.5,1.7l-1.1,0.8l0.8,2.2c-0.1-0.1-0.2,0-0.3-0.1c0.9,1-0.5,2.6,1.1,3.9
								c-0.1-0.1-0.1,0-0.2-0.1c0.9,0.7,0.3,2.4,0.1,3.1c0.2,1.1,1.1,0.4,1.6,0.5c-0.2,3.3-0.2,2.2,1.2,4.9
								c-1.4,1.6-2.3-1.9-3.3,0.2c0.7,0.3,1.3,1.7,1.5,3.3c-0.5,1.5-0.9,4-1.9,5.3l0.9-0.1l0.5,2.1l-1.3-1.2
								c0.3,0.3,0.9,1.4,1.3,2.1c0.7,2.2-2.1,1.1-0.8,2.8c-0.1,0.1-0.2,0.1-0.3,0.1c0.7,0.6,0.3,2,0.5,3.6l-1.2-0.6l0.3-1
								c-1.2,0.5,0.1,1.7-0.1,2.8c0.3,1.1,1.3,0.6,1.6,1.3c-0.1,0.4,0.2,1-0.1,1.3c-0.4,0.9-1.4,0-1.9-0.3c1.2,0.9,1,1.2,1.3,3.1
								c-0.6,0.1-0.8-0.1-0.9-0.4c0.1,0.4,0.4,0.8,0.9,1l-0.7,0.6c-1.1,2.1,2.1,2.2,1.6,4.7c-0.6-0.7,0.1,2.2-0.7,2.9
								c-0.2-0.9-1.7,0.4-2.5-0.1c-0.4,2.1,1.4,0.8,1.7,2.5l-1.5-0.7c0.6,1.6,0.8,0.4,1.3,2c-0.4-0.4-0.4,0.7-0.9-0.2
								c-0.1,2.2,0,1.6,0,3.5l1.4,0.1c0.2,0.6-0.4,0.9-0.7,1.1c0-0.3,0-0.7-0.2-0.6c-1.2,0.8,0.8,1.1-0.3,2.1c0.4-0.2,1-0.5,1.2,0.2
								c-0.9-0.2-0.7,1.2-1.1,1.3c0.6-0.5,0.4,1.6,1.4,1.6c-0.6,0.9-0.7-0.2-1.2-0.2c1.2,0.6,0.5,3.1,1.2,3.7
								c-0.1,0-0.1,0.1-0.2,0.1c0.8,0.9,1.1,2.4,2.3,4.1l-0.9-0.5c-0.1,1.9,1.9,0.9,2,2.5c-1.2-0.2,0.4,2.5-1,2
								c0.8,0.8,1.2,1.8,2.3,2.2c-0.5,1-1.8-1.5-2-0.2l0.8,1.2l-0.6,0.3c0.5,0,0.7,1.1,1,1c-0.7,0.3-1.2,0.9-1.8,0.9
								c0.3,0.8-0.2,2,0.5,2.6l-0.4,0.1c1.5,0.6,0.6,2.5,2.1,2.7l-0.7,0.6c0.3,1.2,1.7,0.8,2.1,1.4c0.1,0.5,0.3,1.1,0.3,1.6
								c-1.1-1.5-1,1-1.5,1.4c0,0.6,0.4,2.5,1.2,3c-0.8-0.7-1.4-0.1-1.6-1.5c-1.3,0.9,0.6,2.1,0.6,3.7l-0.7,0.1
								c0.7,2.2,1.9,2.1,3.1,2.9c-0.8,0.4-1,0.2-1.9-0.3c-0.3,1.5,0.6,3.8,0.7,5.5c-0.5,0.6-0.9,0.3-1.2-0.2c0.9,1.6,0.4,3.9,2,4.7
								c-0.6-0.3-0.3,0.7-0.5,1.4c0.3,0,0.7,0,0.7,0.1c0.8,1,1.6,3.2,1.3,4.5l-0.5-0.4c0.3,2.9,2.9,3.7,2.5,6.9
								c-0.2,0.6-1.3-0.3-1,0.8c0.6,0.4,1.7,0.1,1.6,1.6l-1,0.1l1.1,0.8c0.7-0.6,0.1-2.2,1.2-1.2c-0.7,1.4,1.1,1,0.3,2.7
								c-0.1-0.4-0.9-0.7-1.4-0.9c-0.3,1.7,0.1,2.8,0.5,4c0.4,1.1,0.7,2.3,0.3,4c0.9,1.6,1.3,3.7,2.1,4.8c-1,0-1.8,0.1-2.6-0.6
								c0,1.4,2.3,1.9,1,3c1.4,0.5,1.3,3.9,3.1,4c-0.4,0.1,0.2,1.5-1,0.2c0.8,1.9-1.3,2.7-1.2,3.6c0.1,0.5,1.1-0.7,1.3,0.4
								c-0.1,0.1-0.2,0.2-0.3,0.4l0.5,0.4c-0.4,0.5-1-0.4-1.4-0.4c-0.2,1.6,1.4,2.5,1.7,4.4l-0.4-0.3l0.2,1.9l-0.1-0.1l0.9,1.5
								l-0.5,0c0.2,0.3,0.5,0.4,0.6,0.9l-0.6-0.1c1,0.4,1.7,2.1,1.8,3l-0.2,0.2l1.4,1.9c-0.5,1.2-1.6-1.2-0.8,0.9l-1.3-0.4
								c0.7,1.5,0,1.8,0.6,2.8c0.5-0.6,0.3-1.3,0.9-0.8c-0.3,0.3-0.4,0.6-0.4,0.9l-2.7,0.4c0-0.8-1.1-1.3-1.7-2.2
								c0.1,0.6,0.1,1,0.9,1.3c0,0.6-0.6,0.3-0.6,0.7l0.3,0.3l5-0.7l-0.5-0.5l0.8-0.4l-0.8-1.4c1,0-0.1-1.4,1-1
								c-0.5-1,0.1-1.7-1-2.6c0.5-0.8,0.9,1.1,0.8,0.3c-0.7-2.1-1.1-4.3-1.5-6.5c-0.3-2.2-0.4-4.4-0.5-6.7l0.5,0.4
								c-0.5-0.4-0.9-0.9-1.2-1.2c0.7-0.9,1.3-3.9-0.3-4.8c0.1-0.2,0.3,0,0.4,0.1c-0.3-1.5,0.3-4.3,0-6.4c-1.6-0.7,0.6-3.4-1.5-4
								l0.5,0.4c-0.5,0.8-1.5-0.9-2.1-1.1c1.3-0.8,1-0.2,2.2-1l-0.4,0.9l1.1-0.3c-3.2-2.4,0.6-5.4-1.8-6.8c0.1,0.1,0.3,0,0.4,0.1
								c0.4-1.2-1.1-1.8-1.6-2.5c0.5-0.2,1,0.3,1.5,0.7c0-1-0.5-2.3-1-3.6c-0.5-1.3-0.8-2.6-0.6-3.7c-0.9-0.6-0.9,0.4-1.6-0.2
								c0.1-0.7,0.6-1.3,1.1-0.5c1.1-2.1-1.8-6-0.9-9.1c-1-1.4-1.3-0.4-2.1-2.6c0.6,0.5,1.7-0.8,2,0.6l0.6,0.1
								c-0.2-2.3-0.4-5.4-2.2-6.4c1.2-0.2,0.2-0.4,0.7-1.4c-0.2-0.3-0.2,0.1-0.2,0.2c-1.1-0.7-0.1-1.3-0.4-1.9l0.2,0.2l-1-1.6
								c0.1-0.3,0.3-0.7,0.7-0.8l-0.8,0.1c-0.1-0.9,1-0.6,0.7-1.6l-0.6,0.3c0.3-0.7-0.7-1.8,0.2-2c0.2-0.1,0.1,0.1,0.2,0.3
								c1.2-1.2-0.7-2.8-0.3-4.3l-1.3,0.5c-0.6-1.3,0.2-0.9,0.7-0.9c-0.1-0.9,0.3-1.1,0.3-2.3c-0.4-0.5-0.5-0.2-1-0.4l0.2-1.2
								l0.8,0.7c-2.2-1.6-0.4-4.7-2.3-5.7c0.3-0.7,0.9,0.5,1.1,0.1c0.6-2.3-1.9-4.7-1.1-6.6c0.7-3-0.6-6.3-0.2-9.6l-0.4,0.1
								c0-0.8,0.1-1.5,0.2-2.3c-0.8-0.6-0.5-2.1-1.5-3.1c0.3,0.1,0.7-0.1,1,0.1c-0.1-1-0.5-2,0-2.6l0.3,0.3c0.2-2.1,0.4-5.1-0.2-6.3
								c0-0.8,0.6-0.7,1.1-0.9c0.1-1.3-0.2-2.1-0.7-3.2c0.2-0.3,0.4-0.5,0.7-0.8l-0.9-0.6c0.2-0.5,0.7-0.1,1-0.5
								c-0.9-2.1,0.2-4.4,0.2-5.8L396,358c-0.3-0.6,0.4-1.7,0.8-1c0.7-2.8-1.2-4.3-0.9-8.1c1.6-0.5-0.5-3.4,1.4-4
								c-0.5-1.6,0.2-2.6-0.8-3.8c0.2,0,0.3-0.2,0.3,0.1c0.7-0.7,0.1-2.7-0.4-4.3l0.6-0.1c-1.2-0.6-0.9-3.3-2.1-3.8
								c0.3-0.2,0.5,0.3,0.7,0.5c1.1-0.8-0.6-1.4-0.3-2.5c0.3,0.1,0.6-0.2,0.8,0c0.7-1.7,0.5-3.8,0.3-6.2c-0.2-2.3-0.4-4.8,0.1-7
								c0.1-1.3-1.3,0.4-1.1-1.3c0.6-0.4,1.2,0.9,1.5-0.2c-0.7-0.8-0.5-1.1-0.4-2.1c0.4,0.2,0.7,0.1,0.9,0.8
								c0.5-0.6-0.8-2.6,0.3-3.7c-0.4,0-0.6-0.2-0.8-0.4c-0.9-1.8,1.4-3.9,0.8-4.1c0,0-0.1-0.6-0.3-0.1c0.1-0.6,0.3-1.5,0.9-1.3
								c-0.3-0.4-0.8-0.7-0.8-1.2l0.7,0.3c-0.1-0.3-0.5-0.7-0.6-1L397,304c0.6-0.7-0.6-2.2,0.7-2.1l0,0.3l0.7-1.3
								c-0.5-0.6-1-1.2-0.7-2.1c1.4-0.2,0.5-2.3,0.7-3.5l0.5,0.1c-0.2-0.3-0.3-0.8-0.3-1.3c0-0.5,0-0.8,0-1.6c0-0.5-0.1-0.7-0.1-0.5
								c-0.1-1,0.2-2.1,0.6-1.7c-0.1-0.2-0.1-0.4-0.2-0.6l-2.1-8l-4.6,4.8c-0.2,0.2-0.5,0.5-0.7,0.8l-1.3,1.5
								c-0.1,0.4-0.1,0.9,0.2,1.2l-1.7,0.8c0.1,0.1,0.2,0.2,0.2,0.3c0,0.2,0,0.3,0,0.5c0,0.6-0.1,0.8-0.2,1.1
								c-0.1,0.3-0.3,0.5-0.4,0.7c-0.3,0.5-0.4,0.9,0.3,1.1c-0.5,0.7-0.9,0.4-1.3,0.8c0.5,1.4,0,2.5-0.5,3.6l-0.2,0
								c-0.1,0.2-0.1,0.4-0.2,0.6c0,0.1,0,0.2,0,0.3c0,0,0,0.1,0,0.1l0,0l0,0c0,0,0,0.1,0,0.2c0,0.1,0,0.2,0,0.4
								c0,0.2,0,0.5-0.1,0.8c0,0.5-0.1,1-0.3,1.6l-1.4-0.2c-0.1,0.9,0.8,1.5,0.2,2.1c-0.3,0.1-0.3-0.1-0.2-0.3
								c-0.1,0.8-0.8,1.7-1.4,2.1c0.4,1.5-0.3,2.2,0.2,3.7c-1.5,0.4,0.1-1.5-1.3-1.3c-0.7,0.7-1,1.5-1.3,2.4
								c-0.2,0.9-0.3,1.8-0.5,2.8c-0.3,0-0.4-0.3-0.6-0.5c0,0,0,0.2,0.1,0.5c0,0.1,0.1,0.3,0.2,0.5c0,0.1,0.1,0.2,0.1,0.3
								c0.1,0.1,0.1,0.1,0.2,0.2c0.1,0.1,0.2,0.2,0.2,0.4c0,0.2,0,0.5,0,0.7c0.1,0.4,0.2,0.8,0.3,1c0.1,0.3,0.3,0.5,0.5,0.7
								c0.3,0.4,0.7,0.6,1,0.6c0.6,0.8,0.9,1.6,2.2,0.4c0-0.2-0.1-0.3-0.2-0.5c0-0.1,0-0.2,0-0.3c0-0.1,0.1-0.3,0.2-0.5
								c0.1-0.4,0.2-0.5,0.4-0.7c0.2-0.1,0.4-0.2,0.6-0.2l-0.8-0.5c0.6-2.2,1.8,0.7,3-1.8l-0.5,0.4c0.2-0.5-0.2-1.1,0.3-1.5
								c0.3,0,0.3,0.3,0.4,0.6l-0.2-2.6c0.5,0.1,0.8,0.3,1,0.9c0.8-1.9-1.8-0.3-0.4-2.5c0.6-0.2,0.5,0.4,0.6,0.8
								c1.2-0.7,0.9-1.8,0.9-3.1c0.8,0.3,0.4,1,1.3,0.3c-0.5,0-1.2-0.2-1-0.9c0.6,0.7,0.7-0.3,1.1-1c-0.3,0-0.7-0.2-0.7-0.5
								c0-0.4,0.4-0.6,0.6-1l-1.1,0.5c-0.3-1.5,1.1-1.7,1.8-2.5c0.1,0.1,0.2,0.3,0.1,0.5c0.1-0.1,0.2-0.2,0.3-0.4
								c0.1-0.1,0.2-0.2,0.4-0.5c0.2-0.3,0.3-0.4,0.4-0.6c0.1-0.2,0.2-0.3,0.3-0.5c0.1-0.4,0.2-0.8,0.1-1.3l0.1,0.1
								c-0.1-2.6-1.6,0.3-1.5-2.6c0.5-0.8,2.5,1.3,2.2-1c-1,0.7-1.2-1.6-1.2-2.9c0-0.1,0-0.1,0-0.2l0.2,0.3c0.3,0.4,0.7,0.9,1,1.4
								c0.1-0.1,0.1-0.3,0.1-0.5l0-0.3c0-0.1,0-0.1,0-0.2c0-0.1,0.1-0.3,0.2-0.4l-0.4-0.1c-1.3-0.5,0.7-1.3,0.5-2.4l-0.3,0.3
								c0,0,0-0.1,0-0.1c0,0.1,0,0.2,0.1,0.3l0.3-0.4c1,1.6,0.8,1.6,2.3,2.5c-0.3-0.5-0.5-1.1-0.6-1.7l-1,1.1c0.1-0.4,0.3-0.7,0.6-1
								l-3.9-1.9c0.1,0.3,0.2,0.7,0.1,1.1l-1.3-1l5.8,2.8l0,0.3l0.2-0.1l-6.2-3c0,0.4,0.1,0.8,0.2,1.3c0.1,0.2,0.2,0.4,0.3,0.6
								l0.2,0.3l0.2,0.1c0.2,0,0.3,0.5,0.5,0.8c0.2,0.3,0.4,0.7,0.6,1c0.4,0.6,0.8,1.2,1.1,1.8c-1.1-0.6-1.5,0.1-2.4-0.7l0.1,2
								l-1.1-0.7c1.2,0.9,0.2,1.7,1.8,1.7c-0.2-0.2-0.4-0.2-0.3-0.6c0.5,0.1,1.4,0.5,1.3,1.6c-0.5,0.7-0.6-0.5-1-0.3
								c0.6,0.7-0.5,0.7-0.1,1.4l0.7-0.6c0.9,0.6-0.1,1.2,0.3,1.9c-0.3-0.9-0.9-0.6-1.4-0.4l0.1,0c0,0.5,0.6,1.2,0,1.5l-1.2-0.5
								l0.9,0.8c-0.2,0.3-0.6,0.4-0.8-0.1c-1,2.2,2.7,0.2,1.3,3.1c-0.5-0.1-0.8-0.4-0.4-1.2c-0.8-0.2-1.2,0-1.6,0.8
								c-0.1,0-0.1,0-0.1,0C389.6,307.2,389.4,309.2,390.2,310.3z"/>
							<path class="st1" d="M389.8,305.6c0.1-0.8,0.1-1.6,0-1.9C389.5,303.8,389,305.6,389.8,305.6z"/>
							<path class="st1" d="M394.1,429.6c-0.1-0.1-0.1-0.2-0.2-0.3C394,429.4,394.1,429.5,394.1,429.6z"/>
							<path class="st1" d="M395.4,436.1c0.1-0.1,0.2-0.2,0.2-0.4C395.4,435.8,395.2,435.9,395.4,436.1z"/>
							<path class="st1" d="M388.7,367.1L388.7,367.1L388.7,367.1z"/>
							<path class="st1" d="M390.4,405.5c0.5,0.5,0.8,0.7,1.2,0.7C391.4,405.8,391.1,405.6,390.4,405.5z"/>
							<path class="st1" d="M389.4,392.7c-0.1-0.1-0.1-0.2-0.2-0.2C389.2,392.7,389.3,392.7,389.4,392.7z"/>
							<path class="st1" d="M388.2,365.1c0.4,0.6,0.3,1.4,0.5,2C388.5,366.6,389,365.5,388.2,365.1z"/>
							<polygon class="st1" points="398.2,444 397.4,443.4 398,444 							"/>
							<path class="st1" d="M396.7,437.9c0.1-0.3-0.4-1.3-0.7-1C396.3,437.2,396.5,437.5,396.7,437.9z"/>
							<polygon class="st1" points="394.1,414.1 393.4,413.9 394,414.4 							"/>
						</g>
					</g>
				</g>
			</g>
		</g>
	</g>
	<g id="Stroke_12_Felt">
		
			<image style="overflow:visible;opacity:0.75;" width="235" height="258" xlink:href="C98608CB.png"  transform="matrix(0.24 0 0 0.24 404.52 166.44)">
		</image>
		<g>
			<polyline class="st0" points="419,198.7 418,197.7 417.8,196.9 418,195.8 418.9,194.8 420.1,193.6 421.2,192.2 422.1,191.9 
				423.5,194.3 426,196.7 429.8,196.5 433.1,192.4 434.6,188.2 434.8,186.7 433.7,182.1 430.7,179.1 426.3,179.1 421.6,182.2 
				418.8,186 418.2,187.3 416.9,191.6 416.7,193.1 418,197 422.6,197.9 428.3,195.6 432.3,192.3 433.1,191.4 434.2,187.4 
				431.9,185.1 427.3,185.4 422.6,188 419.7,192.2 418.5,197 419.6,201.4 423,204.6 428.2,205.5 433,203.7 435.7,200 435.1,195.8 
				432.4,192.8 429.7,196.7 431.4,200.8 			"/>
			<g>
				<g>
					<g>
						<g>
							<polygon class="st1" points="433.4,200 433.9,199.7 432.9,199.3 							"/>
							<path class="st1" d="M434,195.5c-0.1-0.5,0-1.1-0.1-1.6L431,194c0.6,0.1,1.1,0,1.6-0.4l-1.1-0.1l1.7-0.1l0.1,0.7
								c-0.9-0.4-1.4,0.3-1.5,1.1l0.4-0.7c0,0.3,0.6,0.5,0.6,0.8c-1.2,0.8,0.2,1.2-1.3,1.6l-0.1-0.1c0,0.1,0.1,0.1,0.1,0.2
								c0.2,0.2,0.5,0.3,0.7,0.4c-0.1,0.2-0.6,0.1-0.8,0.1c0.4,0.3,0.7,0.4,1,0.6l0.2,0.1c0,0,0.1,0,0.1,0.1l0.1,0.1
								c0.1,0.2,0.2,0.4,0.3,0.7c0.3-0.4,0.4-0.7,0.2-0.9c-0.1-0.2-0.1-0.2-0.2-0.2c-0.1,0-0.2-0.1-0.3-0.1c-0.4-0.2-1-0.6,0-0.7
								l0.1,0l-0.1,0c-0.2-0.2,0.1-0.4,0.4-0.5l0.2-0.1c0.1,0,0.1,0,0.2-0.2C433.8,196,434,195.8,434,195.5z"/>
							<path class="st1" d="M431.4,197.3L431.4,197.3C431.3,197.3,431.3,197.3,431.4,197.3z"/>
							<path class="st1" d="M424.4,192.3l-0.2-0.2C424.3,192.2,424.3,192.3,424.4,192.3z"/>
							<path class="st1" d="M421.1,202.4L421.1,202.4C420.7,202.6,420.8,202.6,421.1,202.4z"/>
							<path class="st1" d="M430.6,188.8l-0.5,0.1C430.6,189,430.7,188.9,430.6,188.8z"/>
							<path class="st1" d="M420.1,188.5L420.1,188.5L420.1,188.5z"/>
							<path class="st1" d="M427.5,198.4l0.1,0.4C427.6,198.6,427.6,198.5,427.5,198.4z"/>
							<path class="st1" d="M420.8,194.7c0-0.2,0-0.4-0.1-0.5C420.6,194.3,420.6,194.5,420.8,194.7z"/>
							<path class="st1" d="M420.3,188.3c0,0.1-0.1,0.1-0.1,0.2C420.2,188.4,420.2,188.4,420.3,188.3z"/>
							<path class="st1" d="M436,191.7l1,0.1C436.7,191.7,436.3,191.7,436,191.7z"/>
							<path class="st1" d="M419.4,193.7c0.1-0.1,0.1-0.3,0.1-0.4l3.6,1.3l-0.1,0c0,0,0.1,0.1,0.1,0.1l-3.7-1.4
								C419.4,193.5,419.3,193.6,419.4,193.7z"/>
							<path class="st1" d="M434.7,194.4c-0.1,0.1-0.2,0.3-0.2,0.6C434.6,194.8,434.7,194.6,434.7,194.4z"/>
							<path class="st1" d="M413.6,190.9C413.6,190.9,413.5,190.8,413.6,190.9c-0.1-0.1-0.2-0.2-0.3-0.3c0,0.1,0,0.1,0,0.2
								C413.4,190.9,413.5,190.9,413.6,190.9z"/>
							<path class="st1" d="M430.8,175.9l0.1,0c0,0,0-0.1-0.1-0.2L430.8,175.9z"/>
							<path class="st1" d="M422.8,177.7c0-0.1,0-0.1,0-0.2C422.8,177.6,422.8,177.7,422.8,177.7z"/>
							<path class="st1" d="M436.8,179.2c0.2,0,0.4,0.1,0.6,0.1L436.8,179.2z"/>
							<path class="st1" d="M437.7,185c0.3-0.3,0.7-0.1,1,0c0.2-1.1-1-1.2-0.4-2.5l-0.4,0.6c-0.1-0.1-0.3-0.2-0.4-0.3l-0.1-0.1
								l-0.1-0.2c-0.1-0.1-0.1-0.3-0.2-0.4c-0.2-0.5-0.3-1.1-0.4-1.7c-0.3-0.4-0.4-0.8-0.5-1.3l0.5,0.1c-0.4-0.1-0.7-0.3-0.9-0.6
								c-0.1-0.1-0.3-0.3-0.3-0.4c0-0.1-0.1-0.2-0.1-0.3c-0.2-0.4-0.2-0.7-0.7-0.8c0,0.3-0.1,0.5-0.2,0.6c-0.1,0.1-0.2,0.3-0.1,0.6
								l-0.2-0.1l-0.3-0.2l-0.6-0.3l-1.2-0.6c0.2-0.5,0.3-0.9,0.4-1.4l-0.4-0.2l-1.2,0.3c0.1,0.3-0.4,0.2-0.9,0.2
								c-0.6,0-1.2,0.1-1.2,0.7c-0.3-0.2-0.2-0.5-0.1-0.7c0.2-0.3,0.6-0.5,0.8-0.8c-0.2,0.1-0.4,0.1-0.6,0.1c-0.2,0-0.3,0-0.3,0
								c-0.1,0-0.3,0.1-0.5,0.4l-0.5-1.1c-0.1,0.1-0.4,0.1-0.5,0.2l-0.6,0.2l-1.1,0.4c0.1-0.1-0.1-0.2,0-0.3
								c-0.1,0.1-0.2,0.2-0.2,0.2c-0.4,0.6-0.9,0.7-1.5,1.1c-0.1,0.1-0.3,0.2-0.4,0.3c-0.1,0.1-0.1,0.2-0.2,0.3
								c-0.1,0.2-0.1,0.5-0.1,0.9c0-0.1,0-0.1-0.1-0.2c0.1,1-1.1,1-1.5,1.1c-0.4,0.6,0.4,1.1,0.6,1.5c-0.2,0.1-0.3,0.1-0.4,0.2
								c-0.2,0.1-0.3,0.2-0.4,0.2c-0.3,0.1-0.4,0.3-0.6,0.4c-0.3,0.5-0.2,1-0.1,2.3c-1.7,0-1.2-2.3-2.7-1.8c0.5,0.5,0.4,1.6,0,2.5
								c-0.3,0.2-0.5,0.3-1,0.7c-0.6,0.7-0.8,0.6-1.5,1.4c-0.2,0.2-0.4,0.5-0.5,0.6c-0.2,0.1-0.3,0.2-0.5,0.3l0.9,0.2l0.1,1.4
								l-1.1-1.1c0.2,0.3,0.6,1.1,0.9,1.6c0.2,0.7-0.3,0.8-0.8,0.8c-0.2,0-0.4,0-0.5,0.1c0,0-0.1,0.1,0,0.2c0,0.2,0.1,0.4,0.2,0.6
								c-0.1,0-0.2,0.1-0.2,0.1c0,0-0.1,0-0.1,0c0.1,0.1,0.2,0.3,0.3,0.5c0.1,0.2,0.1,0.3,0.1,0.5c0,0.4,0,0.9-0.1,1.5
								c0.1,0.3,0.3,0.7,0.5,1c-0.4-0.1-0.9-0.2-1.4-0.3l-0.1-0.6l0.2-0.5c-0.3,0.1-0.4,0.3-0.5,0.6c0,0.3,0.3,0.7,0.6,1.1
								c0.2,0.2,0.3,0.4,0.4,0.6c0.1,0.1,0.2,0.2,0.2,0.3c0.7,0.8,1.5,0,1.9,0.3c0.1,0.3,0.5,0.6,0.3,1c0,1-1.1,1-1.7,0.9
								c1.2,0.1,1.3,0.3,1.9,1.2c0.2,0,0.4,0,0.6,0c-0.3,0.5-0.6,0.7-0.9,0.8c0.5-0.1,1-0.2,1.5-0.6c0,0.2,0.1,0.5,0.2,0.7
								c0.8,0.7,1.6,0.3,2.2-0.3c0.7-0.5,0.9-1.2,1.9-0.8c-0.3,0.3,0.3,0.3,0.9,0.4c0.5-0.2,0.9-0.3,1.3-0.1
								c-0.3,0.2-0.1,0.6,0.1,1.1c0.3,0.4,0.6,0.9,0.5,1.4c0.6-0.1,0.9-0.3,0.9-0.4c0.1-0.2,0-0.4,0-0.6c-0.1-0.4-0.2-1,0.2-1.3
								l0.2,1.5c0.6-1-0.1-0.8,0.6-1.6c-0.1,0.5,0.5,0.2,0.2,0.9c1.2-0.3,0.9-0.3,2-0.6l-0.5-1.4c0.2-0.3,0.8,0.2,1,0.4
								c-0.2,0.1-0.6,0.2-0.5,0.4c0.7,0.6,0.9,0,1.2-0.3c0.1-0.2,0.3-0.4,0.8-0.3c-0.4-0.2-1-0.6-0.5-1.1c0.5,0.8,1.1,0.2,1.3,0.4
								c-0.6-0.3,0.6-0.8,0-1.6c0.8,0.2,0.3,0.6,0.6,1c-0.4-1.1,1.3-1.3,1.2-2c0.1,0.1,0.1,0.1,0.2,0.1c0-0.2,0.1-0.6,0.3-1
								c0.2-0.5,0.4-1.2,0.6-1.9c-0.1-0.4-0.1-0.8-0.3-1.1c0.2,0.2,0.4,0.5,0.6,0.8c0.2-0.3,0.2-0.6,0.1-0.8
								c-0.1-0.2-0.3-0.3-0.5-0.5c-0.4-0.3-0.9-0.5-0.7-1c0.6,0.2,0.6-0.2,0.8-0.6c0.1-0.4,0.2-0.8,0.8-0.6c-0.3-0.4-0.5-0.8-0.9-1
								c-0.4-0.1-0.8-0.1-1.2,0c0.2-0.3,0.7-0.4,1.2-0.3c0.6,0.1,1.2,0.2,0.9-0.3c-0.5-0.2-1-0.4-1.4-0.5c0.1-0.2,0.2-0.4,0.3-0.6
								c-0.4,0.2-1-0.3-1.2,0c0.4-0.7,0.4-1.5,0.7-1.9c-0.4-0.2-0.7-0.8-1.1-1.3c-0.3,0-0.6,0.1-0.9,0.3l0-0.4
								c-0.6,0.7-1.1,0.8-1.5,0.9c-0.2,0.1-0.5,0.1-0.6,0.2c-0.1,0.1-0.2,0.3-0.3,0.7l-0.4-0.8c-0.7,0.2-0.5,1.7-0.8,2
								c-0.3,0.1-0.5,0.2-0.8,0.2c0,0,0,0-0.1,0c0,0,0-0.1,0-0.1c0.3-0.4,0.1-0.7-0.3-0.9c-0.3-0.1-0.8,0-1-0.2
								c-0.3,0.1-0.6,0.3-0.8,0.6c-0.3,0.3-0.5,0.6-0.5,1c0-0.9-0.5-1.3,0.2-1.7c-1.1-1-1,0.9-1.9,1.2l-0.3-0.6
								c-0.2,0.2-0.3,0.3-0.4,0.6c-0.1,0.2-0.2,0.4-0.3,0.6c-0.1,0.4,0,0.8,0.1,1.1c0.1,0.4,0.3,0.7,0.5,1.1
								c-0.7-0.4-0.8-0.6-1.1-1.7c-1.2,0.8-1.4,2.2-2.1,3c-0.7-0.1-0.8-0.4-0.8-0.9c0,0.4-0.2,0.7-0.3,1c-0.2,0.3-0.5,0.8-0.7,1.2
								c-0.1,0.6,0,1.3,0.5,1.7c-0.5-0.4-0.5,0.3-0.8,0.6c0.3,0.1,0.6,0.2,0.6,0.3c0.4,0.8,0.6,2.2-0.1,3c-0.1-0.1-0.2-0.2-0.4-0.3
								c-0.1,0.2-0.1,0.3-0.1,0.5c0.2,0.4,0.4,0.8,0.7,1.1c0.3,0.3,0.6,0.5,0.8,0.7c0.5,0.5,1,1,0.7,2c-0.2,0.5-1.2,0.1-1,0.9
								c0.2,0,0.4,0,0.6,0c0.6-0.1,1.1-0.4,1.3,0.2l-0.8,0.6c0.4,0,0.8-0.1,1.2-0.2c0.3-0.8-0.4-1.1,0.7-1.3c-0.1,0.2,0,0.3,0,0.4
								c0.1,0.1,0.2,0.1,0.4,0c0.3,0,0.6,0,0.5,0.7c-0.2-0.1-0.9,0.2-1.3,0.4c0.4,1.3,1.3,1.6,2,1.9c0.6-0.1,1.1,0,1.8,0.6
								c1.1-0.6,2.6-0.5,2.9-1.2c0,1,0.1,1.8-0.5,2.5c0.4,0.1,0.7-0.1,0.9-0.3c0.4-0.7,0.4-1.3,1.1-0.6c0-1.4,2-1.6,1.6-3.4
								c0.1,0.2,0.2,0.1,0.3,0.2c0.1,0.1,0.2,0.2,0.1,0.8c0.3-0.5,0.8,0,1.5,0.3c0.4,0.2,0.8,0.3,0.9,0.1c0.1-0.3-1-0.6-0.7-1.1
								c0.1,0,0.3,0.1,0.4,0.1l-0.2-0.4c0.5,0,0.6,0.8,0.9,1.1c0.5-0.3,0.5-0.8,0.4-1.3c0-0.6-0.1-1.1,0.1-1.5
								c0.1,0.1,0.1,0.2,0.2,0.3l0.5-0.7l0-0.2l0.1,0.1c-0.3-0.3-0.5-0.6-0.8-0.9l0.5,0c-0.2-0.2-0.5-0.2-0.6-0.5l0.6,0
								c-0.5-0.1-0.9-0.3-1.2-0.7c-0.3-0.4-0.4-0.6-0.5-0.7l0.2-0.1c-0.2-0.1-0.4-0.1-0.5-0.1c-0.3,0-0.6,0-0.8,0.1
								c0.2-0.3,0.5-0.4,0.7-0.5c0.2-0.1,0.3-0.1-0.1-0.3c0.4-0.2,0.7-0.4,1.1-0.5c-0.4-0.2-0.6-0.4-0.7-0.6
								c-0.1-0.2-0.2-0.4-0.6-0.5c-0.3,0.6,0.1,0.9-0.5,1c0.5-1.4-0.9-0.7-1.9-0.8l4.3-0.3l0,0.1c0,0,0,0,0-0.1l-4.4,0.3
								c0.2,0.2,0.4,0.4,1,0.1c0.2,0.3-0.4,0.5-0.3,0.7l0.9,0l-0.5,0.7l0.6,0.1c0.2,0,0.4,0.1,0.5,0.1c-0.8,0.6,0.1,0.3-0.8,0.8
								c0.2,0,0.2,0,0.3,0.1c0,0.1,0,0.1,0.6,0.1c-0.5,0.3-0.7,0-0.8,0.1c0,0,0.1,0,0.1,0.1l0.1,0c0,0,0.1,0.1,0.1,0.2l0.3,0.8
								c0.1,0.2,0.2,0.4,0.3,0.6c-0.1,0.1-0.1,0.2-0.2,0.3l-0.5,0.6l-0.4,0.4l-0.2,0.2c0,0.1-0.1,0.1-0.1,0.1
								c-0.1,0.1-0.2,0.1-0.3,0.2c-0.1-0.1-0.2-0.3-0.2-0.4c0.1,0.1,0.2,0.2,0.2,0.4c0.1,0.2,0.2,0.5,0.2,0.7
								c-0.1-0.1-0.3-0.3-0.5-0.4c-0.1-0.1-0.1-0.1-0.2-0.2c-0.2,0-0.3,0-0.5,0c-0.6,0-1.1,0.4-1.2,1.1c-0.1,0-0.1-0.3,0-0.4
								c-0.1,0.1-0.2,0.1-0.4,0.1c-0.1,0-0.3,0.1-0.3,0c-0.1,0-0.2-0.1-0.3-0.2c-0.1-0.1-0.1-0.2-0.2-0.3l0,0l-0.1,0l-0.2-0.1
								c-0.2,0-0.3-0.1-0.5-0.1c-0.4,0.7-0.8,0.4-1.3,0.2c-0.1-0.1-0.2-0.1-0.3-0.2c-0.1,0-0.1,0-0.2,0c0,0,0,0,0,0
								c-0.1,0.1-0.1,0.3-0.4,0.8c0.1-0.1,0.1-0.3,0.2-0.4c0,0.3-0.1,0.6-0.3,1c-0.2,0.3-0.5,0.6-0.7,0.8c0.2-0.7,0.3-0.9,0.4-1.2
								c0.1-0.2,0.2-0.5,0.4-1l-0.1,0.2c0,0.1,0,0.2,0,0.3c0.1-0.4,0.3-0.7,0.4-1.1c0,0.1-0.1,0.2-0.1,0.3c-1.1,2.1-0.7-2.7-2-1.2
								c0.1-0.1,0.2-0.2,0.3-0.2c0.2-0.2,0.1-0.1-0.2,0c-0.3,0.1-0.8,0.2-1,0.2c0.5-0.2,0.9-0.2,1.3-0.4c0.6,0.7-1.6-2.8-0.9-2.3
								c0,0,0.1,0,0.2,0c-0.4-0.1-0.6-0.1-0.9-0.1c-0.2,0-0.4,0-0.7-0.1c0.3-0.2,0.9-0.1,1.2,0.1c0.1,0,0.2,0,0.3,0
								c0.1-0.1,0.2-0.2,0.2-0.4c0.1-0.3,0.2-0.6,0.2-1c0-0.4,0-0.8,0-1.2l0-0.3c0-0.1,0-0.1,0-0.1c0-0.1,0-0.1,0-0.2
								c0-0.1,0.1-0.1,0.2-0.1c0,0,0.1-0.1,0.2-0.1c0.1-0.1,0.2-0.1,0.3-0.2c-0.2-1.2-0.8-1-0.4-2.5c0.2,0.6,1.7,0.8,1.3,1.5
								l0.4,0.4c0.3-0.3,0.5-0.7,0.8-1l0.1-0.1c0-0.1,0.1-0.1,0-0.1l0,0c0,0,0,0-0.1-0.1c-0.1-0.1-0.1-0.2-0.2-0.4l-0.1-0.2
								c0-0.1,0-0.2,0-0.2c0-0.2,0-0.4,0-0.5c0.6,1,0.3,0.1,1.1,0.4c0.1-0.2-0.1-0.2-0.2-0.2c-0.1-1.2,0.7-0.3,0.9-0.7l0,0.3
								l0.5-1.2c0.1,0,0.1,0,0.2,0c0,0,0.1,0.1,0.1,0.1c0.1,0.1,0.2,0.2,0.2,0.4l-0.4-0.8c0.1-0.1,0.4,0.7,0.5,0.8c0,0,0,0,0,0
								c-0.1-0.2-0.1-0.4-0.2-0.6c0.2,0.4,0.2-0.5,0.5,0.4c0,0.2-0.1,0.1-0.2,0.1c0.3,0.6,0.8,0.5,1.2,0.3c0.3-0.1,0.3-0.2,0.3-0.3
								c0-0.1,0.1-0.1,0.1,0.1c0.1-0.5,0.1-0.9,0.2-1.4c0.4-0.5,0.1,0.3,0,0.8c0.1,0,0.1,0.1,0.1,0.3c0,0.1-0.1,0.3-0.1,0.4
								c0.2-0.3,0.3-0.4,0.5-0.8c0,0.2,0,0.3-0.1,0.4c-0.2,0.2-0.4,0.3-0.5,0.5c0.2-0.2,0.3-0.3,0.4-0.4c0.1,0,0.1-0.1,0.2-0.1
								c0.1,0,0-0.1,0-0.1c-0.1-0.2-0.2-0.3-0.4-0.4c-0.1,0.2-0.2,0.2,0.7,0.4c-0.4,0.1-0.8-0.1-1.1,0c-0.3,0.1-0.3,0.1-0.2,0.3
								c0,0.1,0,0.2,0,0.4c0,0.1,0.1,0.1,0.1,0.2c0.1,0.1,0.2,0.2,0.2,0.3c0.1,0.1,0.1,0.2-0.2,0.1c0,0-0.1,0-0.1,0l-0.2-0.1
								c-0.1,0-0.2,0.1-0.3,0.1c-0.2,0.1-0.4,0.2-0.6,0.3c-0.4,0.2-0.7,0.5-1,0.7c-0.3,0.3-0.7,0.6-1,0.9c-0.2,0.1-0.4,0.3-0.5,0.4
								c0,0-0.1,0-0.1,0c0,0-0.1,0-0.1,0c0,0,0-0.1-0.2,0l0.2,0.3l-1.4,0.3c0,0.9-1.1,0.9-1.3,2c-0.1-0.3-0.4-0.7-0.3-0.9
								c-0.7,0.4-0.6,0.8-0.8,0.4c0-0.1,0-0.2,0-0.3c0,0-0.1,0-0.1,0c0,0-0.1-0.1-0.1-0.1c0,0,0,0-0.1,0c-0.2,0-0.3,0-0.5-0.1
								c-0.2,0-0.2,0-0.2,0l-0.1,0.1c-0.1,0.1-0.2,0.2-0.3,0.3c-0.2,0.1,0.2-0.5,0.5-1c0,0,0,0-0.1,0.1c-0.1,0.1-0.4,0.3-0.7,0.4
								c0.1-0.1,0.2-0.3,0.5-0.5c-0.3,0.1-0.5,0.3-0.8,0.4c0.1-0.1,0.7-0.4,0.9-0.5c-0.1,0-0.1,0-0.2,0l-0.1,0c0,0-0.1-0.1-0.1-0.1
								c-0.1-0.1-0.1-0.1-0.2-0.2l-0.1-0.1c0,0,0,0,0,0c-0.1,0-0.1-0.1,0-0.2c0.1-0.1,0.1-0.1,0.2-0.1l0,0c0,0,0-0.1,0-0.1
								c0,0,0,0,0,0l0,0l-0.3-0.1l-0.2,0l0,0c-0.3,0,0.5-0.6,0.8,0c0.4-0.6,0.4-1.2,0.3-1.9c-0.1-0.3-0.1-0.7-0.2-1
								c-0.1-0.3,0-0.8-0.1-0.9c0-0.1,0-0.1,0-0.2c0.1-0.1,0.1-0.3,0.2-0.4c0.2,0.1,0.4,0,0.5,0.1c0.1,0,0.2,0,0.2,0
								c0,0.1,0.2-0.4,0.4-0.7c0.2-0.3,0.5-0.5,1.1-0.2c0.1-0.5,0.4-0.8,0.6-1.1c0.1-0.1,0.2-0.3,0.2-0.5c0-0.1,0-0.2,0-0.3
								c0-0.1-0.1-0.1-0.2-0.3c0.1,0.1,0.2,0.2,0.2,0.2c0.2,0.1,0.3,0.2,0.3,0.2c0,0,0,0,0-0.1l0-0.1c0,0,0,0,0-0.1
								c0.2-0.3,0.4-0.6,0.6-0.9l0.3,0.4c-0.4-1.2,1.3-1.8,0.8-3c0.1,0.1,0.1,0.2,0.2,0.3c0,0.1,0,0.3,0,0.4
								c0.6,0.3,0.4,0.2,0.4-0.1c-0.1-0.3-0.1-0.7,0.1-0.6c0,0.2,0.1,0.3,0.2,0.5c0,0.1,0.1,0.2,0.1,0.2c0,0,0,0.1,0,0.1l0,0
								c0.3,0.4,0,0.4,1.1,0.4l0.3,0c0.1,0,0.2,0,0.2,0l0.1-0.1c0.1-0.1,0.2-0.2,0.3-0.2c0.1,0,0.3,0,0.5,0.1
								c0.2,0.1,0.4,0.4,0.6,0.6c0.1,0.1,0.1,0.2,0.1,0.2c0,0,0,0.1,0,0.2c0,0.1,0.3-0.1,0.5-0.3c0.2-0.2,0.5-0.4,0.7-0.2
								c0,0,0,0,0,0c-0.3,0.3-0.7,0.3-0.9,0.5c-0.1,0-0.2,0.1-0.2,0.1c-0.1,0.1-0.2,0.1-0.2,0.2c0.4-0.1,0.5-0.1,0.6-0.1
								c0,0,0,0,0,0.1c0,0.1,0,0,0,0.2c-0.4,0-0.7,0-1,0c-0.1,0-0.1,0-0.1,0c0,0,0,0,0,0.1c0.1,0.2,0.2,0.3,0.4,0.5
								c0.3,0.4,0.5,0.8,0.1,1.3c0.4-0.1,0.6,0,0.8,0.1c0.5,0.4,0.5,0.5,0.3,0.6c-0.2,0.1-0.4,0.1-0.6,0.2c0,0.1-0.1,0.1-0.1,0.1
								c0,0,0,0-0.1,0c0,0,0,0,0.1,0c0,0,0.1,0,0.1,0.1c0,0,0.1,0,0.1,0c0,0,0.1,0,0.1,0l0,0c0,0,0,0-0.1,0c0,0,0,0-0.1,0
								c0,0-0.1,0.1-0.1,0.1c-0.2,0.1-0.4,0.1-0.6,0c0.2,0.3,0.7,0.6,0.6,0.9l-0.6-0.4c0.1,0.2,0.4,0.5,0.5,0.7l0.5-0.1
								c-0.7,0.2,0.4,1.5-0.9,1.1l0-0.2l-0.8,0.6l0.1,0.1c0,0,0.1,0,0.1,0.1c0.1,0,0.2,0.1,0.3,0.1c0.1,0.1,0.2,0.2,0.3,0.3
								c0,0,0,0-0.1,0c-0.3-0.2-0.5-0.3-0.6-0.3c-0.1,0,0-0.1-0.1,0c-0.1,0.1-0.1,0.2-0.2,0.2c-0.2,0.4-0.3,0.9-0.6,1.1l-0.4-0.3
								c0,0.2,0,0.4-0.1,0.6c0,0.1-0.1,0.2-0.1,0.3c0,0,0,0,0,0.1c0,0.1-0.1,0.1,0,0.2c-0.1,0.1-0.3-0.1-0.5-0.6c0,0,0,0,0,0.1
								c0,0.1,0,0.2,0.1,0.3c0,0.1,0.1,0.3,0.1,0.7c-0.1-0.2,0-0.4-0.1-0.6c-0.2-0.2-0.1-0.4-0.1-0.6c0,1.2-0.1,0.4-0.1,0.5
								c0,0-0.1,0.2-0.3,0.7c0-0.4,0.3-0.7,0.4-1c-0.1,0.2-0.2,0.3-0.3,0.4c0,0-0.1,0.1-0.1,0.1c0,0,0,0-0.1,0
								c-0.1-0.1-0.3-0.2-0.4-0.4c0-0.1-0.1-0.2-0.1-0.2l0-0.1l0.1-0.1c0,0,0,0,0,0c0,0-0.1,0-0.2,0c0,0-0.1,0-0.2-0.1
								c-0.1-0.1-0.2-0.1-0.3-0.2c-0.4-0.2-0.7-0.5-1-0.8l1.1-0.9c-0.1-0.1-0.2-0.1-0.3-0.1l-5.1-1.9c-0.2,0.4-0.1,1.1-0.6,1
								c-0.2-0.2-0.1-0.3,0-0.4c-0.1,0.1-0.1,0.1-0.2,0.2l-1.5,0.9l-0.2,0.4c-0.2,0.4-0.8,0.6-1.2,0.7c0,0.1,0,0.3,0.1,0.4
								c0.1,0.1,0.1,0.1,0.1,0.2c0.2,0.1,0,0.5-0.1,0.7c-0.1,0.3-0.1,0.6,0,1.1c-1.3-0.4,0.2-1-0.9-1.4c-0.7,0.2-1.1,0.7-1.4,1.4
								l-1.1,2.1c0.1,0.4,0.2,0.8,0.3,1.2l0.1,1.8l0.3,0.3c-0.2,0.2-0.5,0.1-0.8,0.2c0,0,0.4,0.1,1,0.3l0.9,1.4
								c1.2-0.3,3.2-0.9,3.6-1.7c0.8-0.4,1.5-0.6,1.3-1.8c-0.4,0.1-0.9,0.1-1.2-0.2l0.4,0.7c-0.1-0.2,0-0.4,0.4-0.6l-0.9,0.2
								c-0.1-0.1-0.1-0.2-0.1-0.3l0,0.6c0.2-0.7,1.7,0.2,2.1-0.7l-0.8,1.6c0.1,0,0.2-0.1,0.3-0.2l-0.2,0l-0.1,0l-0.1,0l0,0l0,0l0,0
								l0,0l0,0l0,0l0,0l0.7-1.5l0,0v0l0,0l-0.7,1.5l0,0l0,0l0,0l0,0l0,0l0,0l0-0.1c0,0,0-0.1,0-0.1c0-0.1,0-0.2,0-0.3
								c0-0.2,0.1-0.3,0.3-0.4c0.3,0.1,0.2,0.4,0.3,0.6c0-0.6,0-1.2,0-1.9c0.4,0.3,0.6,0.6,0.7,1.1c0.4-0.5,0.1-0.7-0.2-1
								c-0.1-0.1-0.3-0.2-0.3-0.4c0-0.1,0-0.1,0.1-0.2c0.1-0.1,0.2-0.1,0.4-0.3c0.1,0,0.2,0,0.3,0.1c0,0,0,0,0.1,0
								c0.2,0.1,0,0.5,0.1,0.8c0.2,0,0.4-0.1,0.6-0.2c0.4-0.3,0.4-0.5,0.4-0.8c0-0.3,0-0.6,0-1c0.7,0.5,0.3,0.8,1.1,0.7
								c-0.4-0.2-0.9-0.5-0.9-0.8l-1.1,0.8c0,0,0.1-0.1,0.1-0.1c0.1,0.9,0.5,0.3,1,0.4c-0.2-0.2-0.3-0.5-0.2-0.7l-2.7-1
								c0,0,0.1,0,0.1,0c0.2,0.1,0,0.5,0.2,0.7l0.5-0.9c1.1,0.3,0.2,1.3,0.2,2c-0.2,0-0.3,0-0.4-0.1c0,0.1,0,0.2,0,0.3
								c0,0.1,0,0.2,0,0.4c0,0.3,0.1,0.6,0.2,0.9c0.1,0.2,0.3,0.4,0.6,0.6c0.1,0,0.1,0.1,0.2,0.1c0,0,0.1,0,0.1,0c0.1,0,0.2,0,0.3,0
								l-0.1,0c1.7,0.5,0.6-1.4,2.5-0.6c0.4,0.6-1.9,2.1,0.1,2.6c-0.2-0.6,0.2-0.8,0.7-0.9c0.7-0.5,1.4-0.9,1.9-1.1
								c-0.3,0.6-0.8,1.1-1.3,1.7c0.4,0,1.3-0.5,1.5-0.3l0-0.4c0-0.7,0.3-0.7,0.6-0.6c0.4,0.1,1,0.3,1.1-0.2c-0.1,1-0.4,1.4-0.5,1.8
								c-0.1,0.4-0.1,0.8-0.2,1.7c0.4-0.5,0.8-0.9,1.2-1.2c0.4-0.3,0.7-0.6,1.2-0.7c0.1-0.2,0.2-0.3,0.4-0.5c0,0.4,0,0.8,0,1.3
								c-0.1,0.2-0.2,0.5-0.3,0.7c0.2,0,0.5,0,0.7,0c0.7-0.9,1.1-2.3,1.2-3.4l0-0.4c0-0.1,0-0.2,0-0.3c0-0.2-0.1-0.4-0.1-0.6
								c-0.1-0.4-0.2-0.8-0.2-1.2c0.7,0.9,1.2,0.8,1.7,1.8l0.6-1.1l0.7,1c-0.2-0.3-0.2-0.5-0.2-0.7c0-0.2,0.1-0.4,0.1-0.6
								c0.1-0.3,0.1-0.6-0.7-1c0.1,0.3,0.2,0.4,0,0.6c-0.3-0.3-0.8-0.9-0.6-1.5c0-0.1,0-0.2,0.1-0.3c0.5-0.4,0.5,0.6,0.9,0.7
								c-0.2-0.4-0.1-0.5,0.1-0.6c0.1-0.1,0.2-0.1,0.2-0.2c0.1-0.1,0.1-0.2,0-0.3c-0.2,0-0.5,0.2-0.8,0.2c-0.4-0.4-0.3-0.5-0.2-0.7
								c0.1-0.2,0.3-0.3,0.1-0.6c0.2,0.6,0.8,0.6,1.3,0.6l-0.1,0c0-0.3-0.4-0.9,0.1-0.9l1.1,0.7l-0.7-0.7c0.2-0.1,0.7-0.1,0.8,0.3
								c0.6-0.5-0.1-0.7-0.6-1c-0.3-0.1-0.6-0.3-0.7-0.4c-0.1-0.2,0-0.3,0.5-0.9c0.2,0.1,0.4,0.2,0.4,0.4c0,0.1,0,0.2,0,0.3
								c0,0.1-0.1,0.2-0.2,0.3c0.4,0.2,0.6,0.2,0.9,0.2c0.1,0,0.2,0,0.4-0.1c0.1,0,0.1,0,0.2-0.1c0.1-0.1,0.1-0.2,0.2-0.3
								c0.1,0,0.1,0,0.1,0c0-0.1,0.1-0.3,0.1-0.4c0-0.2,0.1-0.4,0.1-0.7l0.1-0.5c0.1-0.5,0.1-0.9,0.1-1.3
								C438.4,185.8,438.1,185,437.7,185z"/>
							<path class="st1" d="M438.3,189.5c-0.1,0.2-0.1,0.3-0.2,0.5c0,0.1-0.1,0.2-0.1,0.3c0,0.2-0.1,0.4,0,0.5
								C438.3,190.8,439,190,438.3,189.5z"/>
							<path class="st1" d="M418.6,189.1c0-0.1,0-0.1,0-0.2C418.6,189,418.6,189,418.6,189.1z"/>
							<path class="st1" d="M417,193.7c0.1,0,0.2-0.1,0.3-0.1C417.1,193.5,416.9,193.5,417,193.7z"/>
							<path class="st1" d="M415.9,199.7L415.9,199.7L415.9,199.7z"/>
							<path class="st1" d="M435.1,183.6c-0.7-0.1-1,0-1.2,0.3C434.2,184,434.6,184,435.1,183.6z"/>
							<path class="st1" d="M433.6,195c0,0.1,0,0.2,0,0.2C433.7,195.1,433.7,195,433.6,195z"/>
							<path class="st1" d="M414.6,198.4c0.5,0.3,0.7,0.9,1,1.3c0.1,0,0.2,0,0.3,0c-0.1,0-0.2,0-0.3,0
								C415.4,199.2,415.3,198.3,414.6,198.4z"/>
							<polygon class="st1" points="418.1,199.2 417.4,199 418,199.3 							"/>
							<path class="st1" d="M417.6,195c0.2-0.1,0-0.9-0.4-0.8C417.5,194.5,417.6,194.8,417.6,195z"/>
							<path class="st1" d="M427.9,184.7c0-0.2,0.1-0.5,0.1-0.7c-0.1,0.2-0.2,0.4-0.3,0.6L427.9,184.7z"/>
						</g>
					</g>
				</g>
			</g>
		</g>
	</g>
</g>
</svg>
