<?xml version="1.0" encoding="utf-8"?>
<!-- Generator: Adobe Illustrator 27.8.0, SVG Export Plug-In . SVG Version: 6.00 Build 0)  -->
<svg version="1.1" id="Layer_1" xmlns="http://www.w3.org/2000/svg" xmlns:xlink="http://www.w3.org/1999/xlink" x="0px" y="0px"
	 viewBox="0 0 500 500" style="enable-background:new 0 0 500 500;" xml:space="preserve">
<style type="text/css">
	.st0{opacity:0;fill:#C04529;}
	.st1{fill:none;stroke:#C04529;stroke-width:9;}
</style>
<g id="Drawing">
	
		<image style="overflow:visible;opacity:0.75;" width="2024" height="694" xlink:href="AFE8CAA.png"  transform="matrix(0.24 0 0 0.24 14.04 173.64)">
	</image>
	<g>
		<g>
			<g id="Ebene_00000111184879674750918490000006552190564122002097_">
				<g id="Stroke_0_Felt_00000107588402617286642910000006524435296945990811_">
					<polyline class="st0" points="26.4,194 26.4,194 26.7,194.2 28,194.1 30.1,193.9 31.5,193.8 33.6,193.6 36.1,193.4 38.3,193.2 
						41.1,192.9 43.3,192.8 45.3,192.8 47.5,192.7 49.6,192.7 51.8,192.6 54.2,192.5 56.3,192.3 58.8,192.1 60.9,191.8 62.9,191.5 
						65,191.2 66.3,191 68.4,190.7 68.9,190.7 71.4,190.5 73.8,190.7 75.6,190.9 76.6,191 76.8,191.4 76.6,193.2 76.4,194.7 
						76.2,196.2 75.9,197.7 75.6,199.2 75.5,200 75.2,201.5 74.8,203.5 74.5,205 74.1,207 73.9,208.5 73.7,210.4 73.5,211.9 
						73.2,214 73,215.5 72.7,217.7 72.5,219.2 72.1,221.3 71.9,222.8 71.6,225 71.5,226.5 71.4,228 71.3,229 71.2,230.5 71.1,232 
						71,233 71,234.5 70.9,236 70.9,236.7 70.8,238.3 70.7,240 70.5,241.5 70.4,243 70.1,244.6 69.9,246.1 69.6,247.6 69.3,249 
						69,250.5 68.7,252.1 68.4,253.7 68.1,255.1 67.8,256.6 67.6,257.8 67.1,259.3 66.9,260.1 66.2,261.6 65.8,262.4 65.1,263.9 
						64.4,265 63.5,266.4 62.7,267.6 61.7,269 60.8,270.1 59.6,271.4 58.7,272.3 57.3,273.5 56.3,274.3 54.7,275.3 53.8,275.8 
						52.1,276.6 51.5,276.9 49.1,277.8 46.6,278.3 44.5,278.5 43.9,278.5 41.8,278.2 41.2,278 39.1,277.5 38.4,277.3 36.5,276.5 
						35.9,276.3 34.2,275.4 33.7,275.1 32,273.6 30.9,272.3 30.7,271.9 30,270.4 29.8,269.7 29.5,268.2 29.3,267.2 29.1,265.7 
						29,264.4 29,262.8 29,261.5 29.2,260 29.4,258.8 30,257.3 30.5,256.5 31.4,255.1 32,254.3 33.2,253.1 33.9,252.5 35.4,251.4 
						36,251 37.7,250 38.4,249.6 40,248.6 41,248 42.7,247.1 43.6,246.6 45.4,245.7 46.2,245.4 48.4,244.4 50.7,243.5 52.7,242.8 
						53.2,242.7 55.2,242.1 55.8,242 58.2,241.2 60.5,240.4 62.4,239.7 63.1,239.5 65.1,239 66,238.8 68,238.4 68.9,238.1 71,237.7 
						71.9,237.4 74,236.9 75,236.7 77,236.3 78.2,236 80.3,235.6 81.4,235.4 83.5,235 84.4,234.8 86.5,234.4 87.2,234.2 89.3,233.8 
						89.9,233.7 92,233.4 92.7,233.3 94.8,233 95.5,232.8 97.7,232.5 98.4,232.4 100.5,232 101.1,231.9 103.8,231.6 105.9,231.2 
						106.5,231.1 108.5,230.6 109.2,230.4 111.2,229.8 111.7,229.6 114,228.6 116.2,227.5 117.9,226.5 118.5,226 119.9,224.9 
						120.7,224.2 121.8,222.9 122.6,221.9 123.6,220.5 124.2,219.5 125,218.1 125.4,217.3 126.1,215.9 126.5,215.2 127.2,213.7 
						127.5,213 128.1,211.6 128.5,210.6 129,209.1 129.4,208.1 129.8,206.6 129.9,205.8 130.1,204.3 130.2,203.5 130.2,202 
						130.1,201.3 130,199.7 129.8,199 129.6,197.4 129.4,196.7 129.1,195.1 129,194.4 128.5,192.9 128.3,192.4 127.3,190.7 
						125.9,189.1 124.4,187.8 122.7,186.9 121,186.4 119,186.2 117,186.4 115.1,186.9 113.1,187.9 111.4,188.9 110.9,189.3 
						109.4,190.4 108.5,191.2 107.2,192.4 106.2,193.4 105,194.7 104,195.9 103,197.2 102.2,198.3 101.4,199.8 100.7,201.1 
						100.1,202.5 99.5,204 98.9,205.5 98.3,207.3 97.7,208.8 97.1,210.6 96.6,212.1 96.1,213.6 95.7,215.1 95.4,216.5 95.2,218 
						95,219.4 94.7,220.9 94.6,222.3 94.4,223.8 94.2,225.2 94,226.7 93.8,227.9 93.6,229.5 93.4,230.6 93.2,232.1 93.1,233 
						93,234.6 93,235.7 93,237.2 93.1,238.7 93.2,240.2 93.5,241.9 93.8,243.4 94.2,245.2 94.6,246.7 95,248.2 95.5,249.7 95.9,251 
						96.5,252.5 96.8,253.5 97.4,254.9 97.7,255.9 98.3,257.3 98.6,258 99.3,259.5 99.5,259.9 100.7,261.4 102.2,262.7 103.8,263.9 
						105.9,265.1 107.7,266 108.4,266.3 110.4,266.9 111.2,267.1 113.3,267.6 114.1,267.7 116.7,268.2 119.2,268.7 121.7,269.2 
						124.1,269.6 126.4,269.8 128.5,269.8 130.4,269.6 132.3,269.1 134.2,268.5 136.1,267.6 138,266.4 139.5,265.3 140.1,264.8 
						141.4,263.5 142.1,262.7 143.3,261.5 144.1,260.5 145.2,259.2 145.9,258.2 146.8,256.9 147.5,255.8 148.3,254.4 148.9,253.3 
						149.7,251.8 150.4,250.6 151.1,249.1 151.6,247.8 152.3,246.4 152.8,245.1 153.4,243.6 153.9,242.4 154.5,240.9 155,239.9 
						155.6,238.5 156,237.5 156.6,236 157,235.1 157.7,233.6 158.2,232.7 158.8,231.2 159.2,230.4 159.7,229 160,228.2 160.3,226.7 
						160.5,225.8 160.7,224.3 160.7,223.5 160.8,221.9 160.7,221.2 160.6,219.7 160.6,219.2 160.2,217.3 159.5,215.7 158.6,214.2 
						157.5,213 156.2,212.1 154.6,211.5 152.7,211.4 150.5,211.9 148.8,212.9 148.3,213.2 146.8,214.4 146.2,215 144.9,216.3 
						144.2,217 143.1,218.3 142.3,219.2 141.3,220.5 140.6,221.6 139.7,223 139.1,224 138.3,225.5 137.9,226.3 137.3,227.7 
						137,228.5 136.5,230 136.1,231.3 135.8,232.8 135.4,234.5 135.1,236 134.7,237.7 134.4,239.3 134,240.9 133.7,242.4 
						133.4,244.1 133.2,245.6 132.9,247.4 132.7,249 132.6,250.8 132.6,252.3 132.7,253.6 132.9,255.1 133.1,256.2 133.4,257.7 
						133.6,258.6 134,260.1 134.2,261.1 134.7,262.6 135,263.5 135.7,264.9 136.1,265.5 137.3,267.1 138.9,268.3 140.6,268.9 
						142.5,269.2 144.7,269.4 147.3,269.3 149.8,268.9 152.1,268.1 154,267.5 155.7,267.1 157.3,266.4 159.2,265.3 160.7,264.2 
						161,263.9 162.3,262.7 162.6,262.4 163.8,261.1 164.1,260.7 165.2,259.4 165.7,258.8 166.7,257.4 167.4,256.5 168.4,255.2 
						169.2,254.2 170.1,252.8 170.7,251.8 171.5,250.4 171.9,249.6 172.7,248.2 173.1,247.5 174.1,246.1 174.7,245.2 175.6,243.8 
						176.4,242.7 177.4,241.4 178.3,240.1 179.3,238.8 180.2,237.5 181.3,236.1 182.2,235 183.3,233.7 184.2,232.8 185.3,231.5 
						186.2,230.6 187.3,229.2 188.2,228.3 189.3,227 190.2,226.1 191.5,224.9 192.1,224.3 193.5,223.1 193.8,222.8 195.2,222 
						196.7,222.1 198.2,223.1 199.3,224.5 199.6,224.9 200.2,226.4 200.4,227.2 200.7,228.7 200.9,229.9 201.2,231.4 201.5,232.6 
						201.8,234.1 202.1,235.4 202.4,236.9 202.7,238.3 202.8,239.8 202.8,241.3 202.8,242.9 202.7,244.4 202.6,246 202.6,247.7 
						202.6,249.2 202.6,250.9 202.6,252.4 202.7,253.7 202.7,255.2 202.7,256.1 202.6,257.7 202.5,258.4 202.3,259.9 202.2,260.6 
						202,262.1 201.8,262.9 201.6,264.4 201.4,265.1 201,266.8 200.7,267.8 200.9,268.2 201.5,267.7 202.4,266.3 202.9,265.6 
						203.7,264.1 204.9,262.2 205.7,260.8 206.5,259.4 207.2,258.2 208.1,256.8 209.3,255 210.2,253.6 211.2,252 212.2,250.6 
						213.1,249.3 214,247.9 214.7,246.8 215.6,245.4 216.2,244.6 217.2,243.2 217.6,242.7 218.6,241.3 218.9,240.7 219.8,239.3 
						220,239 221,237.4 221.9,236.7 223.2,237.5 224.1,238.9 224.5,239.5 225.3,241 225.9,242 226.6,243.5 227,244.3 227.6,245.7 
						228,246.6 228.5,248.1 228.9,249.2 229.4,250.7 229.7,251.8 230.2,253.3 230.5,254.4 230.9,255.9 231,256.5 231.4,258.4 
						231.5,259.8 231.4,261.3 230.9,262.8 230.2,264.5 229.5,266 229,267.1 228.9,267.4 229,267.6 228.9,267.8 228.8,268.1 
						229,268.2 229.4,268.1 229.7,268.1 230,268.3 230.7,268.6 233,269.4 235,269.9 236.6,270.2 238.6,270.7 240.6,271.1 
						242.6,271.6 243.7,271.8 245.8,272.2 246.6,272.3 248.7,272.5 249.3,272.5 251.5,272.4 252.1,272.3 254.2,272 254.8,271.8 
						257.4,271.3 259.7,270.6 261.7,269.7 263.7,268.6 265.5,267.1 266.8,265.9 267.4,265.4 268.6,264.2 269.4,263.4 270.6,262.1 
						271.4,261.1 272.5,259.8 273.6,258.5 274.6,257.2 276,255.5 277.1,254.1 278.7,252.2 279.9,250.9 281.6,249.1 282.8,247.8 
						284.2,246.4 285.3,245.1 286.4,243.8 287.4,242.4 288.3,241.2 289.3,239.9 290,238.8 290.8,237.4 291.1,236.8 291.7,235 
						292,233.2 292.1,231.6 292.1,231.1 292.1,229.5 292.1,228.9 292,227.4 291.9,226.8 291.7,225.3 291.6,224.8 291.2,223.3 
						291.1,222.9 290.6,221 289.9,219.3 289.1,217.8 288.2,216.7 287.5,215.8 286.8,215.1 286.3,214.8 285.9,214.6 285.9,214.6 
						286,214.6 286.2,214.6 286.3,214.5 286.3,214.5 286.1,214.4 286,214.4 286,214.3 286.2,214.4 286.5,214.4 287.3,214.1 
						289,213.5 291.5,212.8 293.5,212.3 294.2,212.2 296.4,212 297.1,212 299.3,212 299.8,212.1 302.3,212.5 304.5,213.2 
						306.4,214.3 308.1,215.8 309.3,217.1 309.7,217.6 310.6,219 311,219.7 311.5,221.2 311.8,222.3 312.1,223.8 312.3,225.1 
						312.5,226.7 312.7,228.1 312.9,229.6 313.1,230.9 313.2,232.4 313.3,233.9 313.4,235.4 313.5,237 313.6,238.5 313.6,240.1 
						313.7,241.7 313.7,243.1 313.7,244.6 313.6,245.7 313.5,247.2 313.5,248.4 313.4,249.9 313.3,251.4 313.2,253 313.1,254.6 
						312.9,256.1 312.7,257.7 312.5,259.3 312.3,260.9 312.1,262.4 311.9,264.4 311.8,265.9 311.7,267.4 311.7,268.5 311.6,270 
						311.4,271.5 311.3,272.7 311.2,274.2 311,275.8 310.9,276.5 310.7,278.1 310.5,279.8 310.2,281.3 310,282.4 309.8,283.9 
						309.7,284.3 309.8,285 310.4,284.1 311,282.7 311.8,280.6 312.4,279.1 312.9,277.6 313.7,275.6 314.2,274.1 314.8,272.6 
						315.6,270.2 316.1,268.7 316.6,267.2 317,266.1 317.5,264.6 318.1,262.6 318.7,261.1 319.3,259.5 319.9,258 320.4,256.7 
						320.9,255.2 321.4,253.8 321.9,252.3 322.4,250.8 322.8,249.3 323.2,247.9 323.6,246.4 324,244.9 324.4,243.4 324.8,241.7 
						325.1,240.2 325.5,238.4 325.8,236.9 326.1,235.5 326.2,234 326.3,232.8 326.3,231.3 326.3,230.6 326.2,229 326.2,228.4 
						326,226.9 325.9,226.4 325.7,224.9 325.6,224.4 325.2,222.7 325.1,221.3 325,220.6 324.8,220.6 324.5,221.3 324.5,223.2 
						324.6,224.8 324.8,225.8 325.1,227.3 325.4,228.7 325.8,230.2 326.2,231.3 326.6,232.8 327,234.1 327.5,235.6 328,237.1 
						328.6,238.5 329.2,239.8 330,241.3 330.6,242.4 331.5,243.8 332,244.7 333,246 333.6,246.7 334.7,248 335.2,248.6 336.4,249.8 
						336.7,250.2 338.1,251.7 339.6,253.2 341.6,254.4 343.9,254.9 346.2,254.9 348.1,254.5 349.9,254 351.8,253.2 353.9,252.2 
						355.5,251.2 355.9,250.9 357.3,249.7 357.8,249.3 359,248 359.5,247.4 360.6,246 361.3,245.1 362.3,243.8 363.1,242.7 
						364,241.4 364.7,240.3 365.5,238.8 365.9,238 366.6,236.5 366.8,236 367.6,234.4 368.3,232.6 368.7,231 368.7,229.9 
						368.3,229.8 367.6,230.1 367,230.2 366.9,229.8 367.2,229.4 367.6,229 367.9,228.6 368.2,228.3 368.3,228.2 368.2,228.1 
						368.2,227.8 368.3,227.3 368.4,226.8 368.7,226.5 369,226.3 369.4,226 369.9,225.7 370.2,225.9 370.1,226.4 370.1,226.8 
						370.2,226.9 370.3,226.9 370.4,226.9 370.3,227 370.1,227.1 369.8,227.1 369.8,227.1 370.2,227.2 370.9,228 371.8,229.4 
						372.1,229.9 373,231.3 373.8,232.5 374.7,233.9 375.7,235.3 376.7,236.6 377.6,237.8 378.7,239.1 379.7,240.2 381,241.5 
						381.9,242.5 383.1,243.8 383.9,244.7 385,246 385.5,246.6 386.8,247.9 387.2,248.2 389,249.4 390.8,250.3 392.6,250.8 
						394.4,251 396.2,250.9 398.1,250.3 400,249.4 401.6,248.3 402.2,247.8 403.6,246.7 404.4,246.1 405.8,244.9 406.6,244.3 
						408,243.1 408.7,242.5 409.9,241.3 410.3,240.9 411.4,239.5 411.7,239.1 412.8,237.8 413.1,237.4 414.1,236 414.6,235.3 
						415.5,233.9 416.1,233 417.1,231.6 417.8,230.6 418.7,229.2 419.3,228.2 420.3,226.8 420.8,226 421.5,224.6 421.8,224 
						422.5,222.5 422.7,222.1 423.4,220.5 423.9,219.2 424.5,219 424.9,220.5 425.2,221.7 425.4,223.2 425.7,224.7 425.9,226 
						426.1,227.6 426.3,229.1 426.6,231 426.8,232.5 427,234 427.2,235.2 427.4,236.7 427.6,238.3 427.7,239.9 427.9,241.4 
						427.9,242.9 428,245.1 427.9,246.6 427.9,248.2 427.7,250.6 427.6,252.1 427.4,253.7 427,256.1 426.8,257.7 426.5,259.2 
						426.3,260.7 426.1,262 425.8,263.5 425.5,265.1 425.2,266.6 424.9,268 424.6,269.6 424.3,271.1 423.9,272.6 423.6,274.1 
						423.2,275.6 422.8,277.1 422.3,278.6 421.9,279.9 421.5,281.4 421,282.9 420.3,285.3 419.8,286.8 419.4,288.3 419,290.1 
						418.6,291.6 418.3,293.1 418.1,294.1 417.8,295.6 417.3,297.5 416.9,299 416.4,300.7 415.9,302.2 415.5,303.4 414.9,304.9 
						414.5,305.8 413.6,307.2 413.3,307.7 411.7,309.1 409.8,310.3 408,311.2 407.5,311.4 405.7,312.2 405.1,312.5 403.1,313.1 
						402.5,313.3 400,313.7 397.4,313.7 395.3,313.3 394.6,313.1 392.7,312.4 391.8,312 390.1,311.1 389.1,310.4 387.6,309.2 
						386.7,308.3 385.6,306.9 384.9,305.8 384.2,304.3 383.7,302.9 383.3,301.4 383.1,300 382.9,298.4 382.8,297 382.8,295.5 
						382.9,294.1 383.1,292.6 383.4,291 383.7,289.5 384.1,288 384.6,286.5 385,285.4 385.7,283.9 386.3,282.7 387.1,281.3 
						388.1,279.7 389,278.3 390.3,276.3 391.3,275 392.3,273.6 393,272.7 394.1,271.3 395.1,270 395.9,269 397.1,267.7 398.3,266.5 
						398.9,265.8 400.2,264.6 401.8,263.1 403.3,262 404.7,260.9 406.3,259.8 407.6,259 409.3,258 410.6,257.3 412.4,256.3 
						414.1,255.5 415.9,254.7 417.7,254.1 419.8,253.6 421.3,253.3 423.4,253 424.5,252.8 426.7,252.6 427.5,252.6 429.6,252.4 
						430.3,252.4 432.9,252.6 435.1,252.7 436,252.8 438.2,252.9 439.8,252.8 441.9,252.7 443.7,252.6 445.9,252.4 447.3,252.2 
						449.4,251.8 450.1,251.7 452.7,251.2 454.7,250.6 455.4,250.4 457.3,249.7 457.9,249.3 459.5,248.3 460.4,247.7 461.7,246.4 
						462.5,245.7 463.7,244.4 464.3,243.6 465.4,242.3 466,241.4 466.9,240 467.6,239 468.4,237.5 469,236.4 469.7,234.9 
						470.1,233.8 470.7,232.4 471,231.2 471.5,229.7 471.8,228.5 472.2,227 472.6,225.5 472.9,224 473.1,222.6 473.2,221 
						473.2,219.7 473.1,218.2 472.9,216.8 472.6,215.3 472.3,214.2 472,212.6 471.5,211.1 470.9,209.7 					"/>
					<polyline class="st1" points="26.4,194 26.4,194 26.7,194.2 28,194.1 30.1,193.9 31.5,193.8 33.6,193.6 36.1,193.4 38.3,193.2 
						41.1,192.9 43.3,192.8 45.3,192.8 47.5,192.7 49.6,192.7 51.8,192.6 54.2,192.5 56.3,192.3 58.8,192.1 60.9,191.8 62.9,191.5 
						65,191.2 66.3,191 68.4,190.7 68.9,190.7 71.4,190.5 73.8,190.7 75.6,190.9 76.6,191 76.8,191.4 76.6,193.2 76.4,194.7 
						76.2,196.2 75.9,197.7 75.6,199.2 75.5,200 75.2,201.5 74.8,203.5 74.5,205 74.1,207 73.9,208.5 73.7,210.4 73.5,211.9 
						73.2,214 73,215.5 72.7,217.7 72.5,219.2 72.1,221.3 71.9,222.8 71.6,225 71.5,226.5 71.4,228 71.3,229 71.2,230.5 71.1,232 
						71,233 71,234.5 70.9,236 70.9,236.7 70.8,238.3 70.7,240 70.5,241.5 70.4,243 70.1,244.6 69.9,246.1 69.6,247.6 69.3,249 
						69,250.5 68.7,252.1 68.4,253.7 68.1,255.1 67.8,256.6 67.6,257.8 67.1,259.3 66.9,260.1 66.2,261.6 65.8,262.4 65.1,263.9 
						64.4,265 63.5,266.4 62.7,267.6 61.7,269 60.8,270.1 59.6,271.4 58.7,272.3 57.3,273.5 56.3,274.3 54.7,275.3 53.8,275.8 
						52.1,276.6 51.5,276.9 49.1,277.8 46.6,278.3 44.5,278.5 43.9,278.5 41.8,278.2 41.2,278 39.1,277.5 38.4,277.3 36.5,276.5 
						35.9,276.3 34.2,275.4 33.7,275.1 32,273.6 30.9,272.3 30.7,271.9 30,270.4 29.8,269.7 29.5,268.2 29.3,267.2 29.1,265.7 
						29,264.4 29,262.8 29,261.5 29.2,260 29.4,258.8 30,257.3 30.5,256.5 31.4,255.1 32,254.3 33.2,253.1 33.9,252.5 35.4,251.4 
						36,251 37.7,250 38.4,249.6 40,248.6 41,248 42.7,247.1 43.6,246.6 45.4,245.7 46.2,245.4 48.4,244.4 50.7,243.5 52.7,242.8 
						53.2,242.7 55.2,242.1 55.8,242 58.2,241.2 60.5,240.4 62.4,239.7 63.1,239.5 65.1,239 66,238.8 68,238.4 68.9,238.1 71,237.7 
						71.9,237.4 74,236.9 75,236.7 77,236.3 78.2,236 80.3,235.6 81.4,235.4 83.5,235 84.4,234.8 86.5,234.4 87.2,234.2 89.3,233.8 
						89.9,233.7 92,233.4 92.7,233.3 94.8,233 95.5,232.8 97.7,232.5 98.4,232.4 100.5,232 101.1,231.9 103.8,231.6 105.9,231.2 
						106.5,231.1 108.5,230.6 109.2,230.4 111.2,229.8 111.7,229.6 114,228.6 116.2,227.5 117.9,226.5 118.5,226 119.9,224.9 
						120.7,224.2 121.8,222.9 122.6,221.9 123.6,220.5 124.2,219.5 125,218.1 125.4,217.3 126.1,215.9 126.5,215.2 127.2,213.7 
						127.5,213 128.1,211.6 128.5,210.6 129,209.1 129.4,208.1 129.8,206.6 129.9,205.8 130.1,204.3 130.2,203.5 130.2,202 
						130.1,201.3 130,199.7 129.8,199 129.6,197.4 129.4,196.7 129.1,195.1 129,194.4 128.5,192.9 128.3,192.4 127.3,190.7 
						125.9,189.1 124.4,187.8 122.7,186.9 121,186.4 119,186.2 117,186.4 115.1,186.9 113.1,187.9 111.4,188.9 110.9,189.3 
						109.4,190.4 108.5,191.2 107.2,192.4 106.2,193.4 105,194.7 104,195.9 103,197.2 102.2,198.3 101.4,199.8 100.7,201.1 
						100.1,202.5 99.5,204 98.9,205.5 98.3,207.3 97.7,208.8 97.1,210.6 96.6,212.1 96.1,213.6 95.7,215.1 95.4,216.5 95.2,218 
						95,219.4 94.7,220.9 94.6,222.3 94.4,223.8 94.2,225.2 94,226.7 93.8,227.9 93.6,229.5 93.4,230.6 93.2,232.1 93.1,233 
						93,234.6 93,235.7 93,237.2 93.1,238.7 93.2,240.2 93.5,241.9 93.8,243.4 94.2,245.2 94.6,246.7 95,248.2 95.5,249.7 95.9,251 
						96.5,252.5 96.8,253.5 97.4,254.9 97.7,255.9 98.3,257.3 98.6,258 99.3,259.5 99.5,259.9 100.7,261.4 102.2,262.7 103.8,263.9 
						105.9,265.1 107.7,266 108.4,266.3 110.4,266.9 111.2,267.1 113.3,267.6 114.1,267.7 116.7,268.2 119.2,268.7 121.7,269.2 
						124.1,269.6 126.4,269.8 128.5,269.8 130.4,269.6 132.3,269.1 134.2,268.5 136.1,267.6 138,266.4 139.5,265.3 140.1,264.8 
						141.4,263.5 142.1,262.7 143.3,261.5 144.1,260.5 145.2,259.2 145.9,258.2 146.8,256.9 147.5,255.8 148.3,254.4 148.9,253.3 
						149.7,251.8 150.4,250.6 151.1,249.1 151.6,247.8 152.3,246.4 152.8,245.1 153.4,243.6 153.9,242.4 154.5,240.9 155,239.9 
						155.6,238.5 156,237.5 156.6,236 157,235.1 157.7,233.6 158.2,232.7 158.8,231.2 159.2,230.4 159.7,229 160,228.2 160.3,226.7 
						160.5,225.8 160.7,224.3 160.7,223.5 160.8,221.9 160.7,221.2 160.6,219.7 160.6,219.2 160.2,217.3 159.5,215.7 158.6,214.2 
						157.5,213 156.2,212.1 154.6,211.5 152.7,211.4 150.5,211.9 148.8,212.9 148.3,213.2 146.8,214.4 146.2,215 144.9,216.3 
						144.2,217 143.1,218.3 142.3,219.2 141.3,220.5 140.6,221.6 139.7,223 139.1,224 138.3,225.5 137.9,226.3 137.3,227.7 
						137,228.5 136.5,230 136.1,231.3 135.8,232.8 135.4,234.5 135.1,236 134.7,237.7 134.4,239.3 134,240.9 133.7,242.4 
						133.4,244.1 133.2,245.6 132.9,247.4 132.7,249 132.6,250.8 132.6,252.3 132.7,253.6 132.9,255.1 133.1,256.2 133.4,257.7 
						133.6,258.6 134,260.1 134.2,261.1 134.7,262.6 135,263.5 135.7,264.9 136.1,265.5 137.3,267.1 138.9,268.3 140.6,268.9 
						142.5,269.2 144.7,269.4 147.3,269.3 149.8,268.9 152.1,268.1 154,267.5 155.7,267.1 157.3,266.4 159.2,265.3 160.7,264.2 
						161,263.9 162.3,262.7 162.6,262.4 163.8,261.1 164.1,260.7 165.2,259.4 165.7,258.8 166.7,257.4 167.4,256.5 168.4,255.2 
						169.2,254.2 170.1,252.8 170.7,251.8 171.5,250.4 171.9,249.6 172.7,248.2 173.1,247.5 174.1,246.1 174.7,245.2 175.6,243.8 
						176.4,242.7 177.4,241.4 178.3,240.1 179.3,238.8 180.2,237.5 181.3,236.1 182.2,235 183.3,233.7 184.2,232.8 185.3,231.5 
						186.2,230.6 187.3,229.2 188.2,228.3 189.3,227 190.2,226.1 191.5,224.9 192.1,224.3 193.5,223.1 193.8,222.8 195.2,222 
						196.7,222.1 198.2,223.1 199.3,224.5 199.6,224.9 200.2,226.4 200.4,227.2 200.7,228.7 200.9,229.9 201.2,231.4 201.5,232.6 
						201.8,234.1 202.1,235.4 202.4,236.9 202.7,238.3 202.8,239.8 202.8,241.3 202.8,242.9 202.7,244.4 202.6,246 202.6,247.7 
						202.6,249.2 202.6,250.9 202.6,252.4 202.7,253.7 202.7,255.2 202.7,256.1 202.6,257.7 202.5,258.4 202.3,259.9 202.2,260.6 
						202,262.1 201.8,262.9 201.6,264.4 201.4,265.1 201,266.8 200.7,267.8 200.9,268.2 201.5,267.7 202.4,266.3 202.9,265.6 
						203.7,264.1 204.9,262.2 205.7,260.8 206.5,259.4 207.2,258.2 208.1,256.8 209.3,255 210.2,253.6 211.2,252 212.2,250.6 
						213.1,249.3 214,247.9 214.7,246.8 215.6,245.4 216.2,244.6 217.2,243.2 217.6,242.7 218.6,241.3 218.9,240.7 219.8,239.3 
						220,239 221,237.4 221.9,236.7 223.2,237.5 224.1,238.9 224.5,239.5 225.3,241 225.9,242 226.6,243.5 227,244.3 227.6,245.7 
						228,246.6 228.5,248.1 228.9,249.2 229.4,250.7 229.7,251.8 230.2,253.3 230.5,254.4 230.9,255.9 231,256.5 231.4,258.4 
						231.5,259.8 231.4,261.3 230.9,262.8 230.2,264.5 229.5,266 229,267.1 228.9,267.4 229,267.6 228.9,267.8 228.8,268.1 
						229,268.2 229.4,268.1 229.7,268.1 230,268.3 230.7,268.6 233,269.4 235,269.9 236.6,270.2 238.6,270.7 240.6,271.1 
						242.6,271.6 243.7,271.8 245.8,272.2 246.6,272.3 248.7,272.5 249.3,272.5 251.5,272.4 252.1,272.3 254.2,272 254.8,271.8 
						257.4,271.3 259.7,270.6 261.7,269.7 263.7,268.6 265.5,267.1 266.8,265.9 267.4,265.4 268.6,264.2 269.4,263.4 270.6,262.1 
						271.4,261.1 272.5,259.8 273.6,258.5 274.6,257.2 276,255.5 277.1,254.1 278.7,252.2 279.9,250.9 281.6,249.1 282.8,247.8 
						284.2,246.4 285.3,245.1 286.4,243.8 287.4,242.4 288.3,241.2 289.3,239.9 290,238.8 290.8,237.4 291.1,236.8 291.7,235 
						292,233.2 292.1,231.6 292.1,231.1 292.1,229.5 292.1,228.9 292,227.4 291.9,226.8 291.7,225.3 291.6,224.8 291.2,223.3 
						291.1,222.9 290.6,221 289.9,219.3 289.1,217.8 288.2,216.7 287.5,215.8 286.8,215.1 286.3,214.8 285.9,214.6 285.9,214.6 
						286,214.6 286.2,214.6 286.3,214.5 286.3,214.5 286.1,214.4 286,214.4 286,214.3 286.2,214.4 286.5,214.4 287.3,214.1 
						289,213.5 291.5,212.8 293.5,212.3 294.2,212.2 296.4,212 297.1,212 299.3,212 299.8,212.1 302.3,212.5 304.5,213.2 
						306.4,214.3 308.1,215.8 309.3,217.1 309.7,217.6 310.6,219 311,219.7 311.5,221.2 311.8,222.3 312.1,223.8 312.3,225.1 
						312.5,226.7 312.7,228.1 312.9,229.6 313.1,230.9 313.2,232.4 313.3,233.9 313.4,235.4 313.5,237 313.6,238.5 313.6,240.1 
						313.7,241.7 313.7,243.1 313.7,244.6 313.6,245.7 313.5,247.2 313.5,248.4 313.4,249.9 313.3,251.4 313.2,253 313.1,254.6 
						312.9,256.1 312.7,257.7 312.5,259.3 312.3,260.9 312.1,262.4 311.9,264.4 311.8,265.9 311.7,267.4 311.7,268.5 311.6,270 
						311.4,271.5 311.3,272.7 311.2,274.2 311,275.8 310.9,276.5 310.7,278.1 310.5,279.8 310.2,281.3 310,282.4 309.8,283.9 
						309.7,284.3 309.8,285 310.4,284.1 311,282.7 311.8,280.6 312.4,279.1 312.9,277.6 313.7,275.6 314.2,274.1 314.8,272.6 
						315.6,270.2 316.1,268.7 316.6,267.2 317,266.1 317.5,264.6 318.1,262.6 318.7,261.1 319.3,259.5 319.9,258 320.4,256.7 
						320.9,255.2 321.4,253.8 321.9,252.3 322.4,250.8 322.8,249.3 323.2,247.9 323.6,246.4 324,244.9 324.4,243.4 324.8,241.7 
						325.1,240.2 325.5,238.4 325.8,236.9 326.1,235.5 326.2,234 326.3,232.8 326.3,231.3 326.3,230.6 326.2,229 326.2,228.4 
						326,226.9 325.9,226.4 325.7,224.9 325.6,224.4 325.2,222.7 325.1,221.3 325,220.6 324.8,220.6 324.5,221.3 324.5,223.2 
						324.6,224.8 324.8,225.8 325.1,227.3 325.4,228.7 325.8,230.2 326.2,231.3 326.6,232.8 327,234.1 327.5,235.6 328,237.1 
						328.6,238.5 329.2,239.8 330,241.3 330.6,242.4 331.5,243.8 332,244.7 333,246 333.6,246.7 334.7,248 335.2,248.6 336.4,249.8 
						336.7,250.2 338.1,251.7 339.6,253.2 341.6,254.4 343.9,254.9 346.2,254.9 348.1,254.5 349.9,254 351.8,253.2 353.9,252.2 
						355.5,251.2 355.9,250.9 357.3,249.7 357.8,249.3 359,248 359.5,247.4 360.6,246 361.3,245.1 362.3,243.8 363.1,242.7 
						364,241.4 364.7,240.3 365.5,238.8 365.9,238 366.6,236.5 366.8,236 367.6,234.4 368.3,232.6 368.7,231 368.7,229.9 
						368.3,229.8 367.6,230.1 367,230.2 366.9,229.8 367.2,229.4 367.6,229 367.9,228.6 368.2,228.3 368.3,228.2 368.2,228.1 
						368.2,227.8 368.3,227.3 368.4,226.8 368.7,226.5 369,226.3 369.4,226 369.9,225.7 370.2,225.9 370.1,226.4 370.1,226.8 
						370.2,226.9 370.3,226.9 370.4,226.9 370.3,227 370.1,227.1 369.8,227.1 369.8,227.1 370.2,227.2 370.9,228 371.8,229.4 
						372.1,229.9 373,231.3 373.8,232.5 374.7,233.9 375.7,235.3 376.7,236.6 377.6,237.8 378.7,239.1 379.7,240.2 381,241.5 
						381.9,242.5 383.1,243.8 383.9,244.7 385,246 385.5,246.6 386.8,247.9 387.2,248.2 389,249.4 390.8,250.3 392.6,250.8 
						394.4,251 396.2,250.9 398.1,250.3 400,249.4 401.6,248.3 402.2,247.8 403.6,246.7 404.4,246.1 405.8,244.9 406.6,244.3 
						408,243.1 408.7,242.5 409.9,241.3 410.3,240.9 411.4,239.5 411.7,239.1 412.8,237.8 413.1,237.4 414.1,236 414.6,235.3 
						415.5,233.9 416.1,233 417.1,231.6 417.8,230.6 418.7,229.2 419.3,228.2 420.3,226.8 420.8,226 421.5,224.6 421.8,224 
						422.5,222.5 422.7,222.1 423.4,220.5 423.9,219.2 424.5,219 424.9,220.5 425.2,221.7 425.4,223.2 425.7,224.7 425.9,226 
						426.1,227.6 426.3,229.1 426.6,231 426.8,232.5 427,234 427.2,235.2 427.4,236.7 427.6,238.3 427.7,239.9 427.9,241.4 
						427.9,242.9 428,245.1 427.9,246.6 427.9,248.2 427.7,250.6 427.6,252.1 427.4,253.7 427,256.1 426.8,257.7 426.5,259.2 
						426.3,260.7 426.1,262 425.8,263.5 425.5,265.1 425.2,266.6 424.9,268 424.6,269.6 424.3,271.1 423.9,272.6 423.6,274.1 
						423.2,275.6 422.8,277.1 422.3,278.6 421.9,279.9 421.5,281.4 421,282.9 420.3,285.3 419.8,286.8 419.4,288.3 419,290.1 
						418.6,291.6 418.3,293.1 418.1,294.1 417.8,295.6 417.3,297.5 416.9,299 416.4,300.7 415.9,302.2 415.5,303.4 414.9,304.9 
						414.5,305.8 413.6,307.2 413.3,307.7 411.7,309.1 409.8,310.3 408,311.2 407.5,311.4 405.7,312.2 405.1,312.5 403.1,313.1 
						402.5,313.3 400,313.7 397.4,313.7 395.3,313.3 394.6,313.1 392.7,312.4 391.8,312 390.1,311.1 389.1,310.4 387.6,309.2 
						386.7,308.3 385.6,306.9 384.9,305.8 384.2,304.3 383.7,302.9 383.3,301.4 383.1,300 382.9,298.4 382.8,297 382.8,295.5 
						382.9,294.1 383.1,292.6 383.4,291 383.7,289.5 384.1,288 384.6,286.5 385,285.4 385.7,283.9 386.3,282.7 387.1,281.3 
						388.1,279.7 389,278.3 390.3,276.3 391.3,275 392.3,273.6 393,272.7 394.1,271.3 395.1,270 395.9,269 397.1,267.7 398.3,266.5 
						398.9,265.8 400.2,264.6 401.8,263.1 403.3,262 404.7,260.9 406.3,259.8 407.6,259 409.3,258 410.6,257.3 412.4,256.3 
						414.1,255.5 415.9,254.7 417.7,254.1 419.8,253.6 421.3,253.3 423.4,253 424.5,252.8 426.7,252.6 427.5,252.6 429.6,252.4 
						430.3,252.4 432.9,252.6 435.1,252.7 436,252.8 438.2,252.9 439.8,252.8 441.9,252.7 443.7,252.6 445.9,252.4 447.3,252.2 
						449.4,251.8 450.1,251.7 452.7,251.2 454.7,250.6 455.4,250.4 457.3,249.7 457.9,249.3 459.5,248.3 460.4,247.7 461.7,246.4 
						462.5,245.7 463.7,244.4 464.3,243.6 465.4,242.3 466,241.4 466.9,240 467.6,239 468.4,237.5 469,236.4 469.7,234.9 
						470.1,233.8 470.7,232.4 471,231.2 471.5,229.7 471.8,228.5 472.2,227 472.6,225.5 472.9,224 473.1,222.6 473.2,221 
						473.2,219.7 473.1,218.2 472.9,216.8 472.6,215.3 472.3,214.2 472,212.6 471.5,211.1 470.9,209.7 					"/>
				</g>
			</g>
		</g>
	</g>
</g>
</svg>
